<svg fill="#ffffff" role="img" viewBox="0 0 24 24" xmlns="http://www.w3.org/2000/svg"><title>Coca-Cola</title><path d="M16.813 8.814s-.45.18-.973.756c-.524.577-.828 1.225-.603 1.397.087.066.287.079.65-.25a2.864 2.864 0 00.766-1.063c.234-.57.16-.833.16-.84m2.863 1.038c-.581-.299-1.006-.664-1.448-.89-.422-.216-.695-.307-1.036-.261a1.057 1.057 0 00-.14.035s.176.6-.523 1.607c-.708 1.022-1.35 1.015-1.533.734-.191-.296.056-.9.468-1.437.432-.562 1.19-1.028 1.19-1.028s-.241-.148-.835.19c-.58.326-1.577 1.107-2.502 2.423-.926 1.316-1.11 2.04-1.242 2.61-.132.57-.012 1.18.62 1.18s1.368-.964 1.576-1.299c.386-.624.637-1.581.112-1.45-.259.065-.468.351-.6.627a2.683 2.683 0 00-.19.554 2.185 2.185 0 00-.513.298 3.788 3.788 0 00-.486.43s.002-.456.365-1.194c.364-.737 1.03-1.074 1.408-1.106.34-.027.783.262.408 1.327-.375 1.065-1.483 2.36-2.646 2.376-1.073.015-1.776-1.355-.282-3.745C13.501 9.19 15.441 8.38 16.07 8.29c.63-.09.835.187.835.187a2.709 2.709 0 011.197-.197c.77.052 1.364.596 2.15.979-.205.195-.4.4-.575.592m3.454-.89c-.533.342-1.27.652-1.979.586-.179.185-.371.4-.563.634 1.228.243 2.305-.519 2.877-1.167A3.82 3.82 0 0024 8.248a4.792 4.792 0 01-.869.714m-1.636 3.462a.268.268 0 00.023-.051.124.124 0 00-.113-.108c-.117-.005-.277.017-.695.48a6.303 6.303 0 00-.89 1.263c-.24.438-.337.764-.2.848a.199.199 0 00.146.015c.093-.022.199-.11.36-.295.075-.088.158-.212.258-.349.277-.376.973-1.563 1.111-1.803m-4.349.504c.07-.182.159-.541-.026-.682-.199-.15-.705.201-.708.561-.003.369.357.535.443.559.05.013.066.01.09-.029a3.284 3.284 0 00.201-.409m-.383.67a1.531 1.531 0 01-.348-.222 1.116 1.116 0 01-.26-.317c-.008-.012-.015-.003-.023.008-.007.01-.039.039-.309.434-.27.396-.684 1.216-.31 1.355.241.09.641-.331.86-.61a5.21 5.21 0 00.402-.614c.012-.023 0-.029-.012-.034m4.258.947c-.102.163-.218.476.117.281.41-.236.994-1.123.994-1.123h.265a8.88 8.88 0 01-.803 1.054c-.415.46-.922.879-1.28.837-.416-.048-.286-.596-.286-.596s-.596.635-1.01.59c-.557-.062-.387-.751-.387-.751s-.63.774-1.06.75c-.673-.04-.504-.859-.504-.859z"/></svg>
