<svg xmlns="http://www.w3.org/2000/svg" viewBox="0 0 580.01 90.65"><title>logo</title><path d="M105.31,255.43a5.67,5.67,0,0,1-1.31,1,11.3,11.3,0,0,0-2.62,3.4,10.09,10.09,0,0,0-1.21,4,15.79,15.79,0,0,0,0,3.78c.1,1.26.3,2,.3,3.28a16.9,16.9,0,0,1-.2,4.54c-.1.63-.4,1.13-.5,1.76-.3,1.39.5,2.52,0,3.91-.2.5-.5.63-.61,1.13a8.54,8.54,0,0,0,0,2.77,23.39,23.39,0,0,1-.3,2.65c0,1.13-.2,1.89-.2,3a15.32,15.32,0,0,0,.1,4.28c.2,1.14.61,1.64.91,2.77a8,8,0,0,1,.4,2.27,9.23,9.23,0,0,1-.71,2.9c-.3,1.13-.81,1.76-1,2.9a23.16,23.16,0,0,0-.1,2.65c0,1.13.1,1.89.1,2.9.1,1.89.2,3,.3,4.92.1,1,.1,1.76.2,2.65s.5,1.51.71,2.39a4.77,4.77,0,0,1,.2,2c-.1.63-.71.76-.91,1.26a4,4,0,0,0,.3,2.14,6,6,0,0,0,1.11,2.14,10.09,10.09,0,0,0,2.12,2.27c.5.38,1.31.38,1.51,1.26a2.65,2.65,0,0,1,0,1.26c-.3.76-1.11.63-1.81.88a4.48,4.48,0,0,1-2.22.5A8.74,8.74,0,0,0,98,335c-1,0-1.61.76-2.52,1a12.66,12.66,0,0,1-3,.5,21,21,0,0,1-2.82.13c-.81,0-1.51.5-2.12-.13-.2-.25-.2-.63-.5-.76s-.5.63-.91.76a2.08,2.08,0,0,1-1.51,0c-.6-.13-1.21-.25-1.51-.88s0-1.39,0-2.27a5.93,5.93,0,0,1,.6-3c.61-.63,1.41-.25,2-.88a6.05,6.05,0,0,0,1-2.4c.5-1.26,1.21-2,1.31-3.4a10.69,10.69,0,0,0-.4-3.15,19,19,0,0,1-.6-2.27,15.08,15.08,0,0,1,0-2.14,19.3,19.3,0,0,1,.2-3.4c.2-.75.5-1.26.71-1.89a29.24,29.24,0,0,0,.5-4.16c0-1.13.2-2,.1-3.15-.1-.88-.3-1.51-.4-2.39-.3-2.52.1-4,.1-6.55a55.56,55.56,0,0,1,0-5.8c.2-1.26.5-2.14.71-3.28a9.72,9.72,0,0,0,.3-2.4c0-.76-.3-1.13-.3-1.89a11.78,11.78,0,0,1,.3-2.65c.2-1.39-.2-2.52.3-3.78a7.18,7.18,0,0,0,.61-1.26,4.46,4.46,0,0,0-.1-3c-.4-.88-.81-1.64-1.61-1.76a2.93,2.93,0,0,0-1.71.63c-.91.88-.91,2.14-1.21,3.53A12.64,12.64,0,0,1,85,275c-.2.5-.5.76-.6,1.13a13.11,13.11,0,0,0-.5,2.9,22.51,22.51,0,0,1-.5,2.52c-.3.76-.71,1.13-1,1.89a13.59,13.59,0,0,0-1.21,2.14,33,33,0,0,0-.6,3.4c-.2.88-.4,1.39-.6,2.27s-.3,1.39-.5,2.14A21,21,0,0,1,78,297.27c-.2.63-.4,1-.6,1.64-.3.88-.3,1.64-.61,2.52a31.93,31.93,0,0,1-1.41,3.4,39.3,39.3,0,0,1-1.51,3.78c-.61,1.51-1.31,2.27-1.92,3.78a16,16,0,0,0-.71,2c-.5,1.51-.71,2.52-1.11,4.16s-.81,2.65-1.31,4.16a27.2,27.2,0,0,0-.71,2.77c-.4,1.51-.61,2.65-1.11,4.16s-.81,2.65-1.31,4.16a27.2,27.2,0,0,0-.71,2c-.5,1.51-.71,2.52-1.11,4.16s-.81,2.65-1.31,4.16a27.2,27.2,0,0,0-.71,2.77c-.4,1.51-.61,2.65-1.11,4.16s-.81,2.65-1.31,4.16" fill="white"/></svg>
