<svg xmlns="http://www.w3.org/2000/svg" viewBox="0 0 580.01 90.65"><title>logo</title><path d="M105.31,255.43a5.67,5.67,0,0,1-1.31,1,11.3,11.3,0,0,0-2.62,3.4,10.09,10.09,0,0,0-1.21,4,15.79,15.79,0,0,0,0,3.78c.1,1.26.3,2,.3,3.28a16.9,16.9,0,0,1-.2,4.54c-.1.63-.4,1.13-.5,1.76-.3,1.39.5,2.52,0,3.91-.2.5-.5.63-.61,1.13a8.54,8.54,0,0,0,0,2.77,23.39,23.39,0,0,1-.3,2.65c0,1.13-.2,1.89-.2,3a15.32,15.32,0,0,0,.1,4.28c.2,1.14.61,1.64.91,2.77a8,8,0,0,1,.4,2.27,9.23,9.23,0,0,1-.71,2.9c-.3,1.13-.81,1.76-1,2.9a23.16,23.16,0,0,0-.1,2.65c0,1.13.1,1.89.1,2.9.1,1.89.2,3,.3,4.92.1,1,.1,1.76.2,2.65s.5,1.51.71,2.39a4.77,4.77,0,0,1,.2,2c-.1.63-.71.76-.91,1.26a4,4,0,0,0,.3,2.14,6,6,0,0,0,1.11,2.14,10.09,10.09,0,0,0,2.12,2.27c.5.38,1.31.38,1.51,1.26a2.65,2.65,0,0,1,0,1.26c-.3.76-1.11.63-1.81.88a4.48,4.48,0,0,1-2.22.5A8.74,8.74,0,0,0,98,335c-1,0-1.61.76-2.52,1a12.66,12.66,0,0,1-3,.5,21,21,0,0,1-2.82.13c-.81,0-1.51.5-2.12-.13-.2-.25-.2-.63-.5-.76s-.5.63-.91.76a2.08,2.08,0,0,1-1.51,0c-.6-.13-1.21-.25-1.51-.88s0-1.39,0-2.27a5.93,5.93,0,0,1,.6-3c.61-.63,1.41-.25,2-.88a6.05,6.05,0,0,0,1-2.4c.5-1.26,1.21-2,1.31-3.4a10.69,10.69,0,0,0-.4-3.15,19,19,0,0,1-.6-2.27,15.08,15.08,0,0,1,0-2.14,19.3,19.3,0,0,1,.2-3.4c.2-.75.5-1.26.71-1.89a29.24,29.24,0,0,0,.5-4.16c0-1.13.2-2,.1-3.15-.1-.88-.3-1.51-.4-2.39-.3-2.52.1-4,.1-6.55a55.56,55.56,0,0,1,0-5.8c.2-1.26.5-2.14.71-3.28a9.72,9.72,0,0,0,.3-2.4c0-.76-.3-1.13-.3-1.89a11.78,11.78,0,0,1,.3-2.65c.2-1.39-.2-2.52.3-3.78a7.18,7.18,0,0,0,.61-1.26,4.46,4.46,0,0,0-.1-3c-.4-.88-.81-1.64-1.61-1.76a2.93,2.93,0,0,0-1.71.63c-.91.88-.91,2.14-1.21,3.53A12.64,12.64,0,0,1,85,275c-.2.5-.5.76-.6,1.13a13.11,13.11,0,0,0-.5,2.9,22.51,22.51,0,0,1-.5,2.52c-.3.76-.71,1.13-1,1.89a13.59,13.59,0,0,0-1.21,2.14,33,33,0,0,0-.6,3.4c-.2.88-.4,1.39-.6,2.27s-.3,1.39-.5,2.14A21,21,0,0,1,78,297.27c-.2.63-.4,1-.6,1.64-.3.88-.3,1.64-.61,2.52a31.93,31.93,0,0,1-1.41,3.4,39.3,39.3,0,0,1-1.51,3.78c-.61,1.51-1.31,2.27-1.92,3.78a16,16,0,0,0-.71,2c-.5,1.51-.71,2.52-1.11,4.16s-.81,2.65-1.31,4.16a27.2,27.2,0,0,1-.91,3.15,12.7,12.7,0,0,1-1.31,3c-.4.51-.81.76-1,1.26a11.79,11.79,0,0,0-.71,2.52c-.2.88,0,1.89-.6,2.39a1.17,1.17,0,0,1-1.11.25c-.91-.13-.5-1.64-.91-2.65-.4-1.26-.81-2-1.21-3.28a34.29,34.29,0,0,1-1-3.53c-.5-1.39-1.11-2.14-1.51-3.53-.2-.76-.6-1.26-.5-1.89s.71-.76.91-1.26a3.14,3.14,0,0,0-.3-2.52c-.3-.75-.91-.88-1.51-1.51s-1.51-1-2-2a9.9,9.9,0,0,1-.5-1.89,6.74,6.74,0,0,0,0-2c-.2-1-1-1.13-1.61-1.89a16.58,16.58,0,0,1-2.12-3.28,14,14,0,0,1-1.51-3.15c-.4-1.39-.1-2.65-.5-4-.3-1.13-.91-1.64-1.31-2.77-.3-.88-.4-1.64-.71-2.65s-.91-1.39-1.31-2.39c-.3-.76-.5-1.51-.81-2.27-.5-1.14-1.21-1.64-1.51-2.77-.2-.76-.2-1.26-.4-1.89-.3-.88-1-1-1.41-1.76a5.79,5.79,0,0,1-.7-2.39c-.2-.76,0-1.26-.2-2a5.85,5.85,0,0,0-.81-2.39,4.38,4.38,0,0,0-1.41-1.76,2.65,2.65,0,0,0-1.31-.63,2,2,0,0,0-1.21.38c-.71.63-.2,1.76-.2,2.77s.2,1.64.2,2.52c.2,1.51.3,2.39.4,3.78a9.52,9.52,0,0,1,.1,2.39c0,1.14-.3,1.76-.3,2.9a28.13,28.13,0,0,0-.2,3c0,2,.3,3.15.3,5.17v3.66c0,2.39,0,3.78.1,6.17a46.6,46.6,0,0,0,.3,5.29,22.45,22.45,0,0,0,.61,3.78c.1.88.4,1.51.5,2.4a8.39,8.39,0,0,1-.3,3.15c-.1.76-.5,1.26-.71,2.14a10.76,10.76,0,0,0-.3,2.52,6.46,6.46,0,0,0,.81,2.52c.4.76.91,1,1.41,1.76s.6,1.13,1,1.76c.6,1,1.21,1.51,1.92,2.65.5.76,1.21,1.13,1.31,2.14a3.6,3.6,0,0,1-.3,1.51c-.4.76-1.21.76-2,.88s-1.41-.63-2.32-.5c-.5.13-.81.63-1.31.63-.71.13-1.21-.38-2-.63a15.73,15.73,0,0,0-6.86,0c-.91.25-1.51.76-2.42.63a2,2,0,0,1-1.51-.38,2.2,2.2,0,0,1-.4-1.77c.1-.88.81-1,1.41-1.39.91-.88,1.92-.63,2.72-1.64a7.16,7.16,0,0,0,1.41-3,21,21,0,0,0,1-2.77,16,16,0,0,0,.61-3c.3-2.52-.81-3.91-.71-6.43.1-1.51.5-2.39.61-3.91s-.1-2.27.1-3.66c.2-1.13.61-1.76.91-2.9.2-.88.6-1.39.5-2.27s-.6-1.13-.71-1.89a7.57,7.57,0,0,1-.3-2.65c0-1.13.5-1.76.5-2.9a17.9,17.9,0,0,0-.2-3.28,9.76,9.76,0,0,1-.3-2.39,6.3,6.3,0,0,0,.4-1.51c0-.5-.3-.76-.4-1.13a4,4,0,0,1,.3-2.65c.2-.5.71-.63.81-1.26a2.25,2.25,0,0,0-.1-1.64c-.2-1-.91-1.26-1.21-2.14a5,5,0,0,1-.5-2.77,10.91,10.91,0,0,1,.61-2.65,20.54,20.54,0,0,0,.7-3.15,14.12,14.12,0,0,0,.3-2.9,6.52,6.52,0,0,0-.3-2.39c-.2-.63-.7-.76-1-1.39a7.52,7.52,0,0,1-.81-2.14,8.63,8.63,0,0,1-.3-2.14,7.64,7.64,0,0,0,0-2.14,4.81,4.81,0,0,0-1.21-2,10.19,10.19,0,0,0-1.82-1.26c-.71-.5-1.11-1.13-1.92-1.39a3.32,3.32,0,0,1-1-.38c-.5-.38-.5-1-.71-1.64a4.92,4.92,0,0,1-.3-2.39,2.13,2.13,0,0,1,.81-1.13c.4-.25.71-.13,1.11-.13,1.11,0,1.61.76,2.62,1.13a14.31,14.31,0,0,0,3.33.38,15.82,15.82,0,0,1,2.52-.25c.61,0,.91.25,1.51.25a9.57,9.57,0,0,0,3.23.5c1,0,1.51-.5,2.42-.63h1.51c1.41,0,3.23-.63,3.63.13a6.3,6.3,0,0,1,.6,1.51c.2,1-.4,1.64-.6,2.65a18.08,18.08,0,0,0-.81,3.4,16.78,16.78,0,0,0,.3,2.39c.1,1-.2,1.76.2,2.65s1.11.63,1.71,1.26a16,16,0,0,1,1.11,1.51,17.72,17.72,0,0,1,1.21,2.9,28,28,0,0,1,1.51,3.15,18,18,0,0,1,1.21,2.52,12.89,12.89,0,0,1,.71,2.65,20,20,0,0,0,.1,2.52,6.46,6.46,0,0,0,1.21,1.76c.5.63.91,1.14,1.51,1.76a4.15,4.15,0,0,1,1.21,1.26,9,9,0,0,1,.5,2.52c.3.88.6,1.51.91,2.52s.5,1.39.71,2.27c.4,1.13.6,2,.91,3.15a27.3,27.3,0,0,1,1,3.15c.3,1.39.2,2.39.5,3.78a13.76,13.76,0,0,0,1,4,7.29,7.29,0,0,0,1.51,3,4.54,4.54,0,0,0,3.83,2,4.22,4.22,0,0,0,3.33-1.26,3.19,3.19,0,0,0,1.21-1.89c.4-1,0-1.89.2-2.9a15,15,0,0,1,.3-2.27,24.27,24.27,0,0,1,.81-2.52c.4-1.26.81-2.14,1.21-3.4a34.25,34.25,0,0,0,1.21-3.78c.4-2,.2-3.28.5-5.29a19.76,19.76,0,0,1,.61-4.29c.4-1.13.91-1.76,1.41-2.9s.81-2.14,1.31-3.4c.71-1.89,1.31-3,2-4.91s1-2.9,1.61-4.66c.5-1.51.91-2.52,1.41-4a21.11,21.11,0,0,0,1-2.77c.5-1.76.4-3.15,1-5a13.86,13.86,0,0,1,1.41-3.4c.4-.76.6-1.51,1.31-1.89s1.51.25,2.32.25,1.51.13,2.42.25a18.93,18.93,0,0,1,2.62.13,26,26,0,0,1,3.13.25c.71.13,1.11.38,1.82.5,1.11.13,2-.5,2.92.13a3.13,3.13,0,0,1,1.11,1.76A3.62,3.62,0,0,1,105.31,255.43Z" transform="translate(-22.19 -247.78)" fill="#fff"/><path d="M129.38,301.21a3.31,3.31,0,0,1-.23,1.51c-.38.76-1.13.66-1.89.85a11.65,11.65,0,0,1-1.81.09,5.21,5.21,0,0,1-1.21-.09c-.53-.09-1.06,0-1.51-.47a3.29,3.29,0,0,1-.53-2c-.08-.66-.08-1-.15-1.7a20.83,20.83,0,0,1,0-2.17,20.44,20.44,0,0,1,.76-2.36c.15-.57.23-1,.38-1.7.3-.85.68-1.32,1.06-2.17a12.18,12.18,0,0,0,.68-1.42,7.49,7.49,0,0,1,.3-1.42,1.18,1.18,0,0,1,.45-.75,1.35,1.35,0,0,1,1.06-.1,1.51,1.51,0,0,1,1.13.66,1.9,1.9,0,0,1,.23,1.13c0,.19-.23.28-.38.57a2.77,2.77,0,0,0-.38,1.13c0,.57.38.85.61,1.32s.38.57.45.95c.23.76-.08,1.32,0,2a18,18,0,0,0,.38,2.17,13.61,13.61,0,0,1,.53,2.55A4.35,4.35,0,0,1,129.38,301.21ZM149.72,334a2.4,2.4,0,0,0-1.06-1.32c-.68-.57-1.29-.57-1.89-1.13a5.75,5.75,0,0,1-1.51-2.17,20.47,20.47,0,0,1-.45-2.08,6.86,6.86,0,0,0-1.06-2.17c-.3-.38-.76-.38-1-.94s-.08-1.23-.15-2a13.14,13.14,0,0,0-.23-1.7c-.15-.66-.38-1.13-.6-1.89-.15-.38-.23-.76-.38-1.14-.15-.57-.3-.94-.45-1.51s-.3-.95-.45-1.51-.38-1.13-.6-1.8c-.3-.94-.53-1.51-.83-2.46s-.53-1.61-.83-2.46c-.38-1-1-1.51-1.13-2.65a13.33,13.33,0,0,1,0-2.46,7.47,7.47,0,0,0-.23-1.89,3.49,3.49,0,0,0-.38-.76,9,9,0,0,1-.45-1.32c-.23-.76-.23-1.32-.38-2a14.16,14.16,0,0,1-.45-1.7c-.15-.76.08-1.32-.15-2a6.48,6.48,0,0,0-.53-1.32c-.45-1.23-.23-2.17-.68-3.4-.23-.76-.6-1.13-.83-1.89a8.4,8.4,0,0,1-.38-1.89c-.15-1-.15-1.8-.38-2.84a25.84,25.84,0,0,0-.83-2.65c-.3-.85-.6-1.32-.91-2.17a21,21,0,0,1-.61-2.08,9.58,9.58,0,0,1-.38-1.89c-.15-1,.15-1.7-.15-2.65a1.67,1.67,0,0,0-.68-1.32,1.54,1.54,0,0,0-1.44,0,2.82,2.82,0,0,0-1.21,1.23c-.68,1.13-.15,2.27-.23,3.69a18.38,18.38,0,0,1-.08,2,10.12,10.12,0,0,1-.08,1.51,9.9,9.9,0,0,1-.61,2.17,12.4,12.4,0,0,0-.6,1.13,13.93,13.93,0,0,0-.38,1.7,20.32,20.32,0,0,1-.68,2.36c-.23.57-.45.95-.68,1.42-.23.76-.45,1.23-.68,1.89a14.67,14.67,0,0,1-.53,1.7c-.23.57-.38,1-.6,1.61-.07.47-.15.76-.23,1.23-.23.85-.23,1.51-.53,2.36a7.94,7.94,0,0,1-.83,2.08c-.23.47-.53.76-.76,1.23a9.91,9.91,0,0,0-.45,2.17c-.15.76-.3,1.23-.45,1.89s-.23,1.13-.38,1.8a18.1,18.1,0,0,1-1.29,2.36c-.3.76-.61,1.32-.91,2.08s-.53,1.32-.76,2.17-.3,1.32-.45,2.08-.23,1.32-.38,2.17a5.65,5.65,0,0,1-.3,2.27c-.3.75-1,.75-1.51,1.42s-.61,1.42-1,2.17-.61,1-.91,1.61c-.68,1.51-1.13,2.46-1.74,4.06a14.68,14.68,0,0,1-.91,2c-.45.76-1,.94-1.59,1.42a22,22,0,0,1-2.19,1.8c-.61.38-1.21.28-1.66.95a2.31,2.31,0,0,0-.45,1.61c.08,1.23,1.29,1.13,2.27,1.61a11.85,11.85,0,0,0,3.18.57,17,17,0,0,0,3.1.19c.76,0,1.29-.19,2-.19,1.13,0,1.74.38,2.87.28.61,0,1.29.38,1.66-.19a2,2,0,0,0,.38-.95,3.84,3.84,0,0,0-.15-2.08,5,5,0,0,0-.83-1.32,12.44,12.44,0,0,0-1.29-1,5.59,5.59,0,0,1-1.13-1.61,3.86,3.86,0,0,1-.6-1.89,9.12,9.12,0,0,1,.38-2.36,16.88,16.88,0,0,1,.83-3.4c.23-.76.61-1.13.83-1.89a22.17,22.17,0,0,0,.6-2.46,13,13,0,0,1,.45-1.61c.23-.66.53-1,.76-1.7a20.46,20.46,0,0,0,.45-2.08,9.92,9.92,0,0,1,.61-2.17A3.62,3.62,0,0,1,119,308.3a3.86,3.86,0,0,1,1.74-.57,7.27,7.27,0,0,1,1.44,0c.38-.09.6-.09,1-.19.76,0,1.21-.19,1.89-.19a9.31,9.31,0,0,1,2.27-.09,5.25,5.25,0,0,1,1.74.19,3.23,3.23,0,0,1,1.21.47,3.61,3.61,0,0,1,.53.57,5.41,5.41,0,0,1,.76,1.13,5.81,5.81,0,0,1,.68,1.61c.15.76-.08,1.23.07,1.89a4.3,4.3,0,0,0,.68,1.51,7,7,0,0,0,.45.85,9,9,0,0,1,.3,2,10.19,10.19,0,0,0,.45,1.42,5,5,0,0,0,.6,1.13c.3.76.91.95,1,1.8.15.57-.08.94-.08,1.51a8.24,8.24,0,0,0,.6,2.36c.15.47.3.76.45,1.23a12.07,12.07,0,0,1,.3,1.61,16.73,16.73,0,0,1,.08,1.89,4.21,4.21,0,0,1-.23,1.42,3,3,0,0,1-1.13,1.79c-.61.57-1.21.47-1.89.85s-1.36.28-1.36,1a1.23,1.23,0,0,0,.38,1c.68,1.13,1.82.19,2.87.09.45,0,.76-.09,1.13-.09,1.13-.09,1.74-.19,2.87-.19s1.89.09,3.1.09c1.44,0,2.27.09,3.63.09.68,0,1.13.28,1.74,0a1.76,1.76,0,0,0,1.21-1.13A2.35,2.35,0,0,0,149.72,334Z" transform="translate(-22.19 -247.78)" fill="#fff"/><path d="M104.93,255.59a5.69,5.69,0,0,1-1.31,1A11.31,11.31,0,0,0,101,260a10.1,10.1,0,0,0-1.21,4,15.8,15.8,0,0,0,0,3.78c.1,1.26.3,2,.3,3.28a16.91,16.91,0,0,1-.2,4.54c-.1.63-.4,1.13-.5,1.76-.3,1.39.5,2.52,0,3.91-.2.5-.5.63-.61,1.13a8.54,8.54,0,0,0,0,2.77,23.57,23.57,0,0,1-.3,2.65c0,1.13-.2,1.89-.2,3a15.29,15.29,0,0,0,.1,4.29c.2,1.13.61,1.64.91,2.77a8.06,8.06,0,0,1,.4,2.27,9.23,9.23,0,0,1-.71,2.9c-.3,1.13-.81,1.76-1,2.9a23.16,23.16,0,0,0-.1,2.65c0,1.13.1,1.89.1,2.9.1,1.89.2,3,.3,4.91.1,1,.1,1.76.2,2.65s.5,1.51.71,2.4a4.77,4.77,0,0,1,.2,2c-.1.63-.71.76-.91,1.26a4,4,0,0,0,.3,2.14,6,6,0,0,0,1.11,2.14,10.08,10.08,0,0,0,2.12,2.27c.5.38,1.31.38,1.51,1.26a2.65,2.65,0,0,1,0,1.26c-.3.76-1.11.63-1.81.88a4.48,4.48,0,0,1-2.22.5,8.74,8.74,0,0,0-1.81-.13c-1,0-1.61.76-2.52,1a12.66,12.66,0,0,1-3,.5,21.16,21.16,0,0,1-2.82.13c-.81,0-1.51.5-2.12-.13-.2-.25-.2-.63-.5-.76s-.5.63-.91.76a2.08,2.08,0,0,1-1.51,0c-.61-.13-1.21-.25-1.51-.88s0-1.39,0-2.27a5.93,5.93,0,0,1,.6-3c.61-.63,1.41-.25,2-.88a6,6,0,0,0,1-2.39c.5-1.26,1.21-2,1.31-3.4a10.68,10.68,0,0,0-.4-3.15,18.75,18.75,0,0,1-.6-2.27,15.08,15.08,0,0,1,0-2.14,19.39,19.39,0,0,1,.2-3.4c.2-.76.5-1.26.71-1.89a29.36,29.36,0,0,0,.5-4.16c0-1.13.2-2,.1-3.15-.1-.88-.3-1.51-.4-2.39-.3-2.52.1-4,.1-6.55a55.71,55.71,0,0,1,0-5.8c.2-1.26.5-2.14.71-3.28a9.77,9.77,0,0,0,.3-2.39c0-.76-.3-1.13-.3-1.89a11.81,11.81,0,0,1,.3-2.65c.2-1.39-.2-2.52.3-3.78a7.2,7.2,0,0,0,.61-1.26,4.46,4.46,0,0,0-.1-3c-.4-.88-.81-1.64-1.61-1.77a2.93,2.93,0,0,0-1.71.63c-.91.88-.91,2.14-1.21,3.53a12.67,12.67,0,0,1-.5,2.14c-.2.5-.5.76-.6,1.13a13.1,13.1,0,0,0-.5,2.9,22.53,22.53,0,0,1-.5,2.52c-.3.76-.71,1.13-1,1.89a13.51,13.51,0,0,0-1.21,2.14,32.92,32.92,0,0,0-.6,3.4c-.2.88-.4,1.39-.6,2.27s-.3,1.39-.5,2.14a20.85,20.85,0,0,1-1.51,3.91c-.2.63-.4,1-.6,1.64-.3.88-.3,1.64-.61,2.52A32.07,32.07,0,0,1,75,305a40,40,0,0,1-1.51,3.78c-.61,1.51-1.31,2.27-1.92,3.78a16,16,0,0,0-.71,2c-.5,1.51-.71,2.52-1.11,4.16s-.81,2.65-1.31,4.16a27.16,27.16,0,0,1-.91,3.15,12.71,12.71,0,0,1-1.31,3c-.4.5-.81.76-1,1.26a11.8,11.8,0,0,0-.71,2.52c-.2.88,0,1.89-.6,2.39a1.18,1.18,0,0,1-1.11.25c-.91-.13-.5-1.64-.91-2.65-.4-1.26-.81-2-1.21-3.28a34.26,34.26,0,0,1-1-3.53c-.5-1.39-1.11-2.14-1.51-3.53-.2-.76-.6-1.26-.5-1.89s.71-.76.91-1.26a3.14,3.14,0,0,0-.3-2.52c-.3-.76-.91-.88-1.51-1.51s-1.51-1-2-2a9.81,9.81,0,0,1-.5-1.89,6.75,6.75,0,0,0,0-2c-.2-1-1-1.13-1.61-1.89a16.51,16.51,0,0,1-2.12-3.28A14,14,0,0,1,49,301.08c-.4-1.39-.1-2.65-.5-4-.3-1.13-.91-1.64-1.31-2.77-.3-.88-.4-1.64-.71-2.65s-.91-1.39-1.31-2.39c-.3-.76-.5-1.51-.81-2.27-.5-1.13-1.21-1.64-1.51-2.77-.2-.76-.2-1.26-.4-1.89-.3-.88-1-1-1.41-1.76a5.8,5.8,0,0,1-.71-2.39c-.2-.76,0-1.26-.2-2a5.85,5.85,0,0,0-.81-2.39A4.39,4.39,0,0,0,37.88,272a2.66,2.66,0,0,0-1.31-.63,2,2,0,0,0-1.21.38c-.71.63-.2,1.76-.2,2.77s.2,1.64.2,2.52c.2,1.51.3,2.39.4,3.78a9.54,9.54,0,0,1,.1,2.39c0,1.13-.3,1.76-.3,2.9a28.17,28.17,0,0,0-.2,3c0,2,.3,3.15.3,5.17v3.65c0,2.4,0,3.78.1,6.18a46.57,46.57,0,0,0,.3,5.29,22.43,22.43,0,0,0,.61,3.78c.1.88.4,1.51.5,2.39a8.4,8.4,0,0,1-.3,3.15c-.1.76-.5,1.26-.71,2.14a10.73,10.73,0,0,0-.3,2.52,6.45,6.45,0,0,0,.81,2.52c.4.76.91,1,1.41,1.76s.61,1.14,1,1.77c.61,1,1.21,1.51,1.92,2.65.5.76,1.21,1.13,1.31,2.14a3.59,3.59,0,0,1-.3,1.51c-.4.76-1.21.76-2,.88s-1.41-.63-2.32-.5c-.5.13-.81.63-1.31.63-.71.13-1.21-.38-2-.63a15.73,15.73,0,0,0-6.86,0c-.91.25-1.51.76-2.42.63a2,2,0,0,1-1.51-.38,2.2,2.2,0,0,1-.4-1.76c.1-.88.81-1,1.41-1.39.91-.88,1.92-.63,2.72-1.64a7.17,7.17,0,0,0,1.41-3,21.26,21.26,0,0,0,1-2.77,16.08,16.08,0,0,0,.6-3c.3-2.52-.81-3.91-.71-6.43.1-1.51.5-2.39.61-3.91s-.1-2.27.1-3.65c.2-1.13.61-1.77.91-2.9.2-.88.6-1.39.5-2.27s-.6-1.13-.71-1.89a7.57,7.57,0,0,1-.3-2.65c0-1.13.5-1.76.5-2.9a17.86,17.86,0,0,0-.2-3.28,9.76,9.76,0,0,1-.3-2.39,6.32,6.32,0,0,0,.4-1.51c0-.5-.3-.76-.4-1.13a4,4,0,0,1,.3-2.65c.2-.5.71-.63.81-1.26a2.26,2.26,0,0,0-.1-1.64c-.2-1-.91-1.26-1.21-2.14a5,5,0,0,1-.5-2.77,10.92,10.92,0,0,1,.61-2.65,20.59,20.59,0,0,0,.71-3.15,14.15,14.15,0,0,0,.3-2.9,6.53,6.53,0,0,0-.3-2.39c-.2-.63-.71-.76-1-1.39a7.54,7.54,0,0,1-.81-2.14,8.6,8.6,0,0,1-.3-2.14,7.63,7.63,0,0,0,0-2.14,4.83,4.83,0,0,0-1.21-2,10.26,10.26,0,0,0-1.82-1.26c-.71-.5-1.11-1.13-1.92-1.39a3.28,3.28,0,0,1-1-.38c-.5-.38-.5-1-.71-1.64a4.93,4.93,0,0,1-.3-2.39,2.13,2.13,0,0,1,.81-1.13c.4-.25.71-.13,1.11-.13,1.11,0,1.61.76,2.62,1.13a14.33,14.33,0,0,0,3.33.38,15.88,15.88,0,0,1,2.52-.25c.6,0,.91.25,1.51.25a9.62,9.62,0,0,0,3.23.5c1,0,1.51-.5,2.42-.63h1.51c1.41,0,3.23-.63,3.63.13a6.31,6.31,0,0,1,.6,1.51c.2,1-.4,1.64-.6,2.65a18.1,18.1,0,0,0-.81,3.4,16.9,16.9,0,0,0,.3,2.39c.1,1-.2,1.76.2,2.65s1.11.63,1.71,1.26A15.87,15.87,0,0,1,47.46,265a17.65,17.65,0,0,1,1.21,2.9,28,28,0,0,1,1.51,3.15,18,18,0,0,1,1.21,2.52,12.91,12.91,0,0,1,.71,2.65,20,20,0,0,0,.1,2.52,6.48,6.48,0,0,0,1.21,1.76c.5.63.91,1.13,1.51,1.76a4.14,4.14,0,0,1,1.21,1.26,8.94,8.94,0,0,1,.5,2.52c.3.88.6,1.51.91,2.52s.5,1.39.71,2.27c.4,1.13.6,2,.91,3.15a27.37,27.37,0,0,1,1,3.15c.3,1.39.2,2.39.5,3.78a13.72,13.72,0,0,0,1,4,7.29,7.29,0,0,0,1.51,3A4.54,4.54,0,0,0,67,310a4.22,4.22,0,0,0,3.33-1.26,3.2,3.2,0,0,0,1.21-1.89c.4-1,0-1.89.2-2.9a15,15,0,0,1,.3-2.27,24.36,24.36,0,0,1,.81-2.52c.4-1.26.81-2.14,1.21-3.4A34,34,0,0,0,75.29,292c.4-2,.2-3.28.5-5.29a19.75,19.75,0,0,1,.61-4.29c.4-1.13.91-1.76,1.41-2.9s.81-2.14,1.31-3.4c.71-1.89,1.31-3,2-4.91s1-2.9,1.61-4.66c.5-1.51.91-2.52,1.41-4a21.11,21.11,0,0,0,1-2.77c.5-1.76.4-3.15,1-5a13.8,13.8,0,0,1,1.41-3.4c.4-.76.6-1.51,1.31-1.89s1.51.25,2.32.25,1.51.13,2.42.25a18.93,18.93,0,0,1,2.62.13,26.24,26.24,0,0,1,3.13.25c.71.13,1.11.38,1.82.5,1.11.13,2-.5,2.92.13a3.13,3.13,0,0,1,1.11,1.76A3.62,3.62,0,0,1,104.93,255.59Z" transform="translate(-22.19 -247.78)" fill="#fff"/><path d="M129,301.37a3.32,3.32,0,0,1-.23,1.51c-.38.76-1.13.66-1.89.85a11.55,11.55,0,0,1-1.82.1,5.17,5.17,0,0,1-1.21-.1c-.53-.09-1.06,0-1.51-.47a3.27,3.27,0,0,1-.53-2c-.08-.66-.08-1-.15-1.7a20.69,20.69,0,0,1,0-2.17,20.37,20.37,0,0,1,.76-2.36c.15-.57.23-1,.38-1.7.3-.85.68-1.32,1.06-2.17a12.06,12.06,0,0,0,.68-1.42,7.45,7.45,0,0,1,.3-1.42,1.18,1.18,0,0,1,.45-.76,1.36,1.36,0,0,1,1.06-.09,1.5,1.5,0,0,1,1.13.66,1.9,1.9,0,0,1,.23,1.13c0,.19-.23.28-.38.57A2.78,2.78,0,0,0,127,291c0,.57.38.85.61,1.32a5.45,5.45,0,0,1,.45.95c.23.76-.08,1.32,0,2a17.87,17.87,0,0,0,.38,2.17,13.63,13.63,0,0,1,.53,2.55A4.36,4.36,0,0,1,129,301.37Zm20.34,32.8a2.39,2.39,0,0,0-1.06-1.32c-.68-.57-1.29-.57-1.89-1.13a5.77,5.77,0,0,1-1.51-2.17,20.54,20.54,0,0,1-.45-2.08,6.88,6.88,0,0,0-1.06-2.17c-.3-.38-.76-.38-1-.94s-.08-1.23-.15-2a13.21,13.21,0,0,0-.23-1.7c-.15-.66-.38-1.13-.6-1.89-.15-.38-.23-.76-.38-1.13-.15-.57-.3-.95-.45-1.51s-.3-.95-.45-1.51-.38-1.13-.6-1.8c-.3-.94-.53-1.51-.83-2.46s-.53-1.61-.83-2.46c-.38-1-1-1.51-1.13-2.65a13.33,13.33,0,0,1,0-2.46,7.49,7.49,0,0,0-.23-1.89,3.53,3.53,0,0,0-.38-.76,9,9,0,0,1-.45-1.32c-.23-.76-.23-1.32-.38-2a14.1,14.1,0,0,1-.45-1.7c-.15-.76.08-1.32-.15-2a6.42,6.42,0,0,0-.53-1.32c-.45-1.23-.23-2.17-.68-3.4-.23-.76-.6-1.13-.83-1.89a8.39,8.39,0,0,1-.38-1.89c-.15-1-.15-1.8-.38-2.84a25.75,25.75,0,0,0-.83-2.65c-.3-.85-.6-1.32-.91-2.17a21.53,21.53,0,0,1-.61-2.08,9.59,9.59,0,0,1-.38-1.89c-.15-1,.15-1.7-.15-2.65a1.67,1.67,0,0,0-.68-1.32,1.54,1.54,0,0,0-1.44,0,2.82,2.82,0,0,0-1.21,1.23c-.68,1.13-.15,2.27-.23,3.69a18.38,18.38,0,0,1-.08,2,10,10,0,0,1-.08,1.51,9.91,9.91,0,0,1-.61,2.17,12.65,12.65,0,0,0-.6,1.13,13.71,13.71,0,0,0-.38,1.7,20.42,20.42,0,0,1-.68,2.36c-.23.57-.45.94-.68,1.42-.23.76-.45,1.23-.68,1.89a14.57,14.57,0,0,1-.53,1.7c-.23.57-.38,1-.6,1.61-.07.47-.15.76-.23,1.23-.23.85-.23,1.51-.53,2.36a8,8,0,0,1-.83,2.08c-.23.47-.53.76-.76,1.23a9.92,9.92,0,0,0-.45,2.17c-.15.76-.3,1.23-.45,1.89s-.23,1.13-.38,1.79a18.19,18.19,0,0,1-1.29,2.36c-.3.75-.6,1.32-.91,2.08s-.53,1.32-.76,2.17-.3,1.32-.45,2.08-.23,1.32-.38,2.17a5.62,5.62,0,0,1-.3,2.27c-.3.76-1,.76-1.51,1.42s-.61,1.42-1,2.17-.61,1-.91,1.61c-.68,1.51-1.13,2.46-1.74,4.06a14.79,14.79,0,0,1-.91,2,4.9,4.9,0,0,1-1.59,1.42,22,22,0,0,1-2.19,1.8c-.61.38-1.21.28-1.66.94a2.32,2.32,0,0,0-.45,1.61c.08,1.23,1.29,1.13,2.27,1.61a11.85,11.85,0,0,0,3.18.57,17,17,0,0,0,3.1.19c.76,0,1.29-.19,2-.19,1.14,0,1.74.38,2.87.28.61,0,1.29.38,1.66-.19a2,2,0,0,0,.38-.95,3.83,3.83,0,0,0-.15-2.08,4.92,4.92,0,0,0-.83-1.32,12.31,12.31,0,0,0-1.29-1,5.59,5.59,0,0,1-1.13-1.61,3.87,3.87,0,0,1-.6-1.89,9.16,9.16,0,0,1,.38-2.36,16.83,16.83,0,0,1,.83-3.4c.23-.76.61-1.13.83-1.89a22.48,22.48,0,0,0,.6-2.46,12.86,12.86,0,0,1,.45-1.61c.23-.66.53-1,.76-1.7a20.25,20.25,0,0,0,.45-2.08,9.9,9.9,0,0,1,.6-2.17,3.61,3.61,0,0,1,1.36-1.61,3.86,3.86,0,0,1,1.74-.57,7.2,7.2,0,0,1,1.44,0c.38-.1.6-.1,1-.19.76,0,1.21-.19,1.89-.19a9.26,9.26,0,0,1,2.27-.09,5.25,5.25,0,0,1,1.74.19,3.21,3.21,0,0,1,1.21.47,3.56,3.56,0,0,1,.53.57,5.38,5.38,0,0,1,.76,1.13,5.77,5.77,0,0,1,.68,1.61c.15.76-.08,1.23.08,1.89a4.29,4.29,0,0,0,.68,1.51,6.9,6.9,0,0,0,.45.85,9,9,0,0,1,.3,2,10.37,10.37,0,0,0,.45,1.42,5,5,0,0,0,.6,1.13c.3.76.91.95,1,1.8.15.57-.08.95-.08,1.51a8.22,8.22,0,0,0,.6,2.36c.15.47.3.76.45,1.23a12.13,12.13,0,0,1,.3,1.61,16.62,16.62,0,0,1,.08,1.89,4.2,4.2,0,0,1-.23,1.42,3,3,0,0,1-1.13,1.8c-.61.57-1.21.47-1.89.85-.53.28-1.36.28-1.36,1a1.23,1.23,0,0,0,.38,1c.68,1.13,1.82.19,2.87.1.45,0,.76-.1,1.13-.1,1.13-.09,1.74-.19,2.87-.19s1.89.09,3.1.09c1.44,0,2.27.09,3.63.09.68,0,1.13.29,1.74,0a1.76,1.76,0,0,0,1.21-1.13A2.35,2.35,0,0,0,149.35,334.17Z" transform="translate(-22.19 -247.78)" fill="#fff"/><path d="M174.53,291.26a4.8,4.8,0,0,1-.38,1.61c-.15.38-.38.47-.53.76-.76,1-.76,2.17-1.44,3.31a6,6,0,0,1-2.95,2.74,5.5,5.5,0,0,1-1.66.47c-.91.19-1.59.76-2.42.29-.15-.1-.3-.38-.53-.47-.61-.28-1.06.38-1.74.19a2.85,2.85,0,0,1-1.74-1.13,4.67,4.67,0,0,1-1-1.23c-1-2-.08-3.78,0-6a9,9,0,0,0,.07-2.46,1.54,1.54,0,0,0-.23-.85c-.38-.57-1.13,0-1.44-.57a2.31,2.31,0,0,1,.15-1.42c.08-.66.45-.95.61-1.61a18.11,18.11,0,0,0,.3-2.17,14.92,14.92,0,0,1,.45-3.31,7.37,7.37,0,0,1,1.06-2.27,4.08,4.08,0,0,1,1.29-1.13,4.38,4.38,0,0,1,1.89-.28c.45.1.76.19,1.13.28a8,8,0,0,1,1.44.38,7.48,7.48,0,0,1,1.89.66,4.17,4.17,0,0,1,1.14,1,13.94,13.94,0,0,1,.83,1.42c.45.66.91.85,1.36,1.51a7.41,7.41,0,0,1,1.21,2.93,7.2,7.2,0,0,1,.15,1.8,13.79,13.79,0,0,0,.23,1.89c.15.95.6,1.42.68,2.36A7.93,7.93,0,0,1,174.53,291.26Zm10.06,37.24c-.3-.28-.6-.09-1-.09a7.84,7.84,0,0,1-2-.38A3.32,3.32,0,0,1,180,326.8a6.47,6.47,0,0,1-.83-2.55c-.07-.76-.07-1.23-.15-1.89-.15-.85-.38-1.42-.61-2.27a30.4,30.4,0,0,1-.76-3.59c-.15-1.13-.08-1.89-.15-3.12a27.6,27.6,0,0,0-.53-3.5,8.18,8.18,0,0,0-1.21-3.69,5.12,5.12,0,0,0-1.29-1.13c-.38-.38-.91-.38-.91-.94s.3-.76.53-1.13a5.68,5.68,0,0,1,1.21-.76,8.35,8.35,0,0,1,1.82-.95,5.66,5.66,0,0,0,1.21-.76,6.4,6.4,0,0,0,.91-1.61c.53-.76.91-1.13,1.36-1.89a15.44,15.44,0,0,0,1.51-2.46,10.24,10.24,0,0,0,.76-2.17,15.15,15.15,0,0,0,.08-2.65,15.44,15.44,0,0,0-.3-3.21,15.11,15.11,0,0,0-.83-3.69,12.2,12.2,0,0,0-1.21-2.55,13.32,13.32,0,0,0-1.81-2.46,20.93,20.93,0,0,0-1.89-2,16.33,16.33,0,0,0-4.46-3,9,9,0,0,0-1.66-.57c-.53-.1-.91.1-1.51,0a8.3,8.3,0,0,1-1.36-.57,8.28,8.28,0,0,0-2-.57,13.12,13.12,0,0,0-3.4-.38,14.24,14.24,0,0,0-2.87.38,18.5,18.5,0,0,0-2.27.19c-.53.19-.83.66-1.44.57s-.68-.47-1.21-.66c-.76-.28-1.36,0-2.19,0s-1.59-.09-2.5-.09c-.6-.09-1.06-.38-1.66-.19a2.18,2.18,0,0,0-1,1.13,2.7,2.7,0,0,0,0,1.89,3.26,3.26,0,0,0,1,1.7c.45.47,1,.47,1.44.95a3.74,3.74,0,0,1,.76,1.61c.15.66-.23,1.32.08,1.89.23.38.53.47.68.76.53.94-.23,1.89-.15,3s.15,1.61.23,2.65a27.17,27.17,0,0,1,.3,3.5c0,1.51-.15,2.36-.15,3.78-.15,2.27-.23,3.59-.23,5.77v2.27c0,1.8.15,2.93.23,4.73,0,2.27.23,3.69.08,6-.08,1.23-.3,2-.38,3.31-.15,2,0,3.31,0,5.39s.38,3.21.15,5.29a10.41,10.41,0,0,1-.83,3.78,6.34,6.34,0,0,1-1.81,2.36c-.61.57-1.29.57-1.74,1.42a2.77,2.77,0,0,0-.53,1.51c.15,1.32,1.66.76,2.65.85a8.18,8.18,0,0,0,2.65-.28c1.06-.09,1.74-.47,2.8-.57a8.6,8.6,0,0,1,1.59-.09c.6,0,1,.19,1.59.19a16,16,0,0,0,3,0,19.61,19.61,0,0,0,2.34-.09,4.49,4.49,0,0,0,1.89-.38c.3-.09.76-.09.83-.57s-.38-.66-.68-.95c-.91-1.13-2.12-.85-3.1-2a7.2,7.2,0,0,1-1.14-2,14.24,14.24,0,0,1-.68-3.59c-.15-1.51.38-2.55-.07-4a4.35,4.35,0,0,0-.76-1.61c-.23-.28-.68-.28-.68-.76s.23-.76.38-1.13a15.19,15.19,0,0,1,.91-1.42,9.62,9.62,0,0,0,.15-3.31,11.62,11.62,0,0,0-.3-2.84c-.15-1.13-.83-1.61-.76-2.74a2.93,2.93,0,0,1,.3-1.42c.45-.95,1.21-1,2.12-1.32a4.61,4.61,0,0,1,2.5-.38,5.06,5.06,0,0,1,2.57,1.7,10.3,10.3,0,0,1,1.82,3,14.84,14.84,0,0,1,1.13,2.55,12.81,12.81,0,0,1,.45,4.54c0,1-.15,1.7-.08,2.74.08,1.7.68,2.65,1.13,4.35.38,1.42.68,2.27,1.13,3.69.3.95.45,1.51.83,2.46.3.66.68.95,1,1.61.15.47.23.75.38,1.23a7,7,0,0,0,1.66,2.36c.83.76,1.51,1.42,2.5,1.23a2.32,2.32,0,0,0,1.29-.57,6.8,6.8,0,0,0,2.42-2.08,12.78,12.78,0,0,0,1.59-3.69C184.13,329.73,185.11,329,184.58,328.5Z" transform="translate(-22.19 -247.78)" fill="#fff"/><path d="M232.37,319.61c-.3.76-.76.95-1.13,1.51a6.94,6.94,0,0,0-.83,1.42,7.65,7.65,0,0,0-.3,2.65,21.78,21.78,0,0,0,0,4.44c.08.95.3,1.51.38,2.36s.3,1.33,0,1.89c-.38.76-1,.66-1.59.85s-1.06.19-1.74.38c-1.44.28-2.34.85-3.86,1.13a7.22,7.22,0,0,1-2,.38c-.68,0-1.13-.09-1.81-.09a4.52,4.52,0,0,0-1.59.09c-.45.09-.68.38-1.13.57A7,7,0,0,1,214,338h-1.74c-1.36,0-2.27.28-3.63.28a11.88,11.88,0,0,1-4.08,0,46.86,46.86,0,0,1-3.78-1.23,22.23,22.23,0,0,1-1.81-1.32c-1.06-.76-1.74-1.13-2.8-1.89a8.23,8.23,0,0,1-1.66-1.42c-.3-.38-.45-.75-.76-1.13a7,7,0,0,0-1.36-1.42c-.68-.76-1.13-1.13-1.74-1.89a14.77,14.77,0,0,1-1.44-1.79,19.21,19.21,0,0,1-1.36-2.17,12.84,12.84,0,0,1-1.59-3.87c-.08-.38-.08-.76-.15-1.13a14.43,14.43,0,0,0-.68-2c-.23-.66-.38-1.23-.61-1.89-.23-.95-.53-1.51-.76-2.46a17.82,17.82,0,0,1-.15-2.83v-1.7c0-1,0-1.8-.08-2.84s-.3-1.51-.38-2.46a12.63,12.63,0,0,1,0-2.93,16.43,16.43,0,0,1,.38-2.08,16.8,16.8,0,0,1,.6-2.84,7.63,7.63,0,0,0,.38-1.23c.3-1.13-.08-2,.23-3.21.07-.47.3-.85.45-1.42s.15-1.32.38-2a10.76,10.76,0,0,1,1.06-1.61c.38-.66.6-1.13.91-1.8a14.84,14.84,0,0,1,1-2,6.81,6.81,0,0,1,.68-.85c.53-.76.83-1.23,1.36-2l1.13-1.42c.61-.57,1-.94,1.66-1.51a22.94,22.94,0,0,1,2.27-1.8,13.67,13.67,0,0,1,2.95-2.08,9.51,9.51,0,0,1,2.72-.95,9.88,9.88,0,0,0,1.89-.47c.6-.38.83-1,1.44-1.23s.91,0,1.44,0c.76,0,1.28-.19,2-.19a31.53,31.53,0,0,1,6,0,21,21,0,0,1,2.34.19,14.68,14.68,0,0,1,3.33.95c1.13.47,1.66,1.13,2.8,1.7.45.19.76.38,1.21.57.6.28,1,.57,1.51.85a24.77,24.77,0,0,1,2.72,1.13c.68.38,1.29.38,1.74,1a7.33,7.33,0,0,1,.45,1.42,12.66,12.66,0,0,1,0,2.93c0,1.42.15,2.17.15,3.59s-.15,2.17-.23,3.5c-.08.85,0,1.42-.15,2.27-.08.57,0,1.23-.45,1.51s-1.06-.09-1.59-.47a4.7,4.7,0,0,1-1.13-1.42,12,12,0,0,1-1.66-2.36,18.72,18.72,0,0,1-.68-2.27,14.25,14.25,0,0,0-.76-1.51,13.57,13.57,0,0,1-.83-1.42c-.23-.47-.08-.95-.38-1.42s-1-.28-1.51-.57a3.75,3.75,0,0,1-.83-.47c-.76-.38-1.21-.66-1.89-1-.53-.19-.83-.38-1.36-.57a13.06,13.06,0,0,0-3.33-.57,11.45,11.45,0,0,0-1.89-.47c-.68-.19-1.21-.1-1.89-.28a10.72,10.72,0,0,1-1.81-.57c-.61-.19-1-.47-1.59-.38a8.41,8.41,0,0,0-1.36.57c-.38.19-.68.28-1.13.47a15.62,15.62,0,0,0-2,1.32,16.47,16.47,0,0,0-1.44,1.23c-.61.47-.91,1-1.51,1.42-.23.19-.53.28-.76.47a4.38,4.38,0,0,0-.76,1.32c-.45.94-.53,1.61-.91,2.46a6.63,6.63,0,0,1-.83,1.89c-.23.38-.6.47-.76.85-.23.57.08,1.13,0,1.8s-.38,1.13-.45,1.89-.15,1.13-.3,1.8c-.15.47-.3.76-.45,1.23s-.53.85-.68,1.32a5.47,5.47,0,0,0-.3,1,6.42,6.42,0,0,0,.08,1.7c.08.47.23.85.3,1.32a19,19,0,0,1,.08,2.08c.08.85.08,1.42.15,2.36a10.74,10.74,0,0,0,0,3.12c.08.47.38.76.38,1.23s-.38.95-.53,1.51a4.39,4.39,0,0,0,0,2c.15.38.38.47.53.76.23.57,0,1.13.08,1.8s.23,1.23.3,2a19.09,19.09,0,0,0,.15,2.08c.15.66.3,1.13.45,1.8a13.17,13.17,0,0,0,.53,1.61,13,13,0,0,0,.61,1.89c.45,1,.83,1.61,1.29,2.46a11.83,11.83,0,0,0,1.06,1.7,9.32,9.32,0,0,0,2.72,1.89,17.84,17.84,0,0,0,3.63,1.51,23.55,23.55,0,0,0,5.07,1.23c1.13.09,1.81.19,2.95.19,2,0,3.71.66,5.29-1a10.15,10.15,0,0,0,1.21-2,13.71,13.71,0,0,0,.83-2.27,8.68,8.68,0,0,0,.45-2.74,9.14,9.14,0,0,0-.38-2.83,5,5,0,0,0-.6-2.46,3.33,3.33,0,0,0-1.29-.85,14.05,14.05,0,0,0-2.27-.57,2,2,0,0,1-1.21-.47,2.08,2.08,0,0,1-.68-1.51,1.8,1.8,0,0,1,1-1.42c.68-.38,2-.19,3.18-.19s1.89,0,3,.09c1,0,1.51.19,2.5.19.6,0,1-.09,1.59-.09,1.29-.09,2-.09,3.4-.09a8.31,8.31,0,0,1,2.65.09c.45.19.83.19,1.13.57.45.76,0,1.61,0,2.55A7.4,7.4,0,0,1,232.37,319.61Z" transform="translate(-22.19 -247.78)" fill="#fff"/><path d="M257.33,301.37a3.32,3.32,0,0,1-.23,1.51c-.38.76-1.14.66-1.89.85a11.54,11.54,0,0,1-1.82.1,5.17,5.17,0,0,1-1.21-.1c-.53-.09-1.06,0-1.51-.47a3.28,3.28,0,0,1-.53-2c-.08-.66-.08-1-.15-1.7a20.94,20.94,0,0,1,0-2.17,20.37,20.37,0,0,1,.76-2.36c.15-.57.23-1,.38-1.7.3-.85.68-1.32,1.06-2.17a12,12,0,0,0,.68-1.42,7.4,7.4,0,0,1,.3-1.42,1.18,1.18,0,0,1,.45-.76,1.36,1.36,0,0,1,1.06-.09,1.5,1.5,0,0,1,1.13.66,1.9,1.9,0,0,1,.23,1.13c0,.19-.23.28-.38.57a2.77,2.77,0,0,0-.38,1.13c0,.57.38.85.61,1.32a5.42,5.42,0,0,1,.45.95c.23.76-.08,1.32,0,2a17.68,17.68,0,0,0,.38,2.17,13.55,13.55,0,0,1,.53,2.55A4.32,4.32,0,0,1,257.33,301.37Zm20.34,32.8a2.39,2.39,0,0,0-1.06-1.32c-.68-.57-1.29-.57-1.89-1.13a5.79,5.79,0,0,1-1.51-2.17,20.54,20.54,0,0,1-.45-2.08,6.87,6.87,0,0,0-1.06-2.17c-.3-.38-.76-.38-1-.94s-.08-1.23-.15-2a13.21,13.21,0,0,0-.23-1.7c-.15-.66-.38-1.13-.61-1.89-.15-.38-.23-.76-.38-1.13-.15-.57-.3-.95-.45-1.51s-.3-.95-.45-1.51-.38-1.13-.61-1.8c-.3-.94-.53-1.51-.83-2.46s-.53-1.61-.83-2.46c-.38-1-1-1.51-1.13-2.65a13.24,13.24,0,0,1,0-2.46,7.49,7.49,0,0,0-.23-1.89,3.49,3.49,0,0,0-.38-.76,9.08,9.08,0,0,1-.45-1.32c-.23-.76-.23-1.32-.38-2a14.18,14.18,0,0,1-.45-1.7c-.15-.76.08-1.32-.15-2a6.37,6.37,0,0,0-.53-1.32c-.45-1.23-.23-2.17-.68-3.4-.23-.76-.61-1.13-.83-1.89a8.34,8.34,0,0,1-.38-1.89c-.15-1-.15-1.8-.38-2.84a25.51,25.51,0,0,0-.83-2.65c-.3-.85-.6-1.32-.91-2.17s-.45-1.32-.61-2.08a9.59,9.59,0,0,1-.38-1.89c-.15-1,.15-1.7-.15-2.65a1.67,1.67,0,0,0-.68-1.32,1.54,1.54,0,0,0-1.44,0,2.82,2.82,0,0,0-1.21,1.23c-.68,1.13-.15,2.27-.23,3.69a18.26,18.26,0,0,1-.08,2,10.11,10.11,0,0,1-.08,1.51,9.94,9.94,0,0,1-.6,2.17,12.54,12.54,0,0,0-.6,1.13,13.71,13.71,0,0,0-.38,1.7,20.32,20.32,0,0,1-.68,2.36c-.23.57-.45.94-.68,1.42-.23.76-.45,1.23-.68,1.89a14.57,14.57,0,0,1-.53,1.7c-.23.57-.38,1-.6,1.61-.08.47-.15.76-.23,1.23-.23.85-.23,1.51-.53,2.36a8,8,0,0,1-.83,2.08c-.23.47-.53.76-.76,1.23a9.86,9.86,0,0,0-.45,2.17c-.15.76-.3,1.23-.45,1.89s-.23,1.13-.38,1.79a18.31,18.31,0,0,1-1.29,2.36c-.3.75-.61,1.32-.91,2.08s-.53,1.32-.76,2.17-.3,1.32-.45,2.08-.23,1.32-.38,2.17a5.63,5.63,0,0,1-.3,2.27c-.3.76-1,.76-1.51,1.42s-.6,1.42-1,2.17-.6,1-.91,1.61c-.68,1.51-1.13,2.46-1.74,4.06a14.57,14.57,0,0,1-.91,2,4.9,4.9,0,0,1-1.59,1.42,22.11,22.11,0,0,1-2.19,1.8c-.61.38-1.21.28-1.66.94a2.33,2.33,0,0,0-.45,1.61c.08,1.23,1.29,1.13,2.27,1.61a11.85,11.85,0,0,0,3.18.57,17,17,0,0,0,3.1.19c.76,0,1.29-.19,2-.19,1.13,0,1.74.38,2.87.28.6,0,1.29.38,1.66-.19a2,2,0,0,0,.38-.95,3.84,3.84,0,0,0-.15-2.08,5,5,0,0,0-.83-1.32,12.32,12.32,0,0,0-1.29-1,5.6,5.6,0,0,1-1.13-1.61,3.86,3.86,0,0,1-.61-1.89,9.18,9.18,0,0,1,.38-2.36,17,17,0,0,1,.83-3.4c.23-.76.61-1.13.83-1.89a22.37,22.37,0,0,0,.6-2.46,12.85,12.85,0,0,1,.45-1.61c.23-.66.53-1,.76-1.7a20.35,20.35,0,0,0,.45-2.08,10,10,0,0,1,.61-2.17,3.62,3.62,0,0,1,1.36-1.61,3.85,3.85,0,0,1,1.74-.57,7.2,7.2,0,0,1,1.44,0c.38-.1.6-.1,1-.19.76,0,1.21-.19,1.89-.19a9.25,9.25,0,0,1,2.27-.09,5.25,5.25,0,0,1,1.74.19,3.23,3.23,0,0,1,1.21.47,3.62,3.62,0,0,1,.53.57,5.36,5.36,0,0,1,.76,1.13,5.81,5.81,0,0,1,.68,1.61c.15.76-.08,1.23.08,1.89a4.29,4.29,0,0,0,.68,1.51,7,7,0,0,0,.45.85,9,9,0,0,1,.3,2,10.53,10.53,0,0,0,.45,1.42,4.93,4.93,0,0,0,.61,1.13c.3.76.91.95,1,1.8.15.57-.08.95-.08,1.51a8.23,8.23,0,0,0,.6,2.36c.15.47.3.76.45,1.23a12.29,12.29,0,0,1,.3,1.61,16.73,16.73,0,0,1,.08,1.89,4.17,4.17,0,0,1-.23,1.42,3,3,0,0,1-1.13,1.8c-.61.57-1.21.47-1.89.85s-1.36.28-1.36,1a1.23,1.23,0,0,0,.38,1c.68,1.13,1.81.19,2.87.1.45,0,.76-.1,1.13-.1,1.13-.09,1.74-.19,2.87-.19s1.89.09,3.1.09c1.44,0,2.27.09,3.63.09.68,0,1.13.29,1.74,0a1.76,1.76,0,0,0,1.21-1.13A2.36,2.36,0,0,0,277.67,334.17Z" transform="translate(-22.19 -247.78)" fill="#fff"/><path d="M302.85,291.26a4.86,4.86,0,0,1-.38,1.61c-.15.38-.38.47-.53.76-.76,1-.76,2.17-1.44,3.31a6,6,0,0,1-3,2.74,5.49,5.49,0,0,1-1.66.47c-.91.19-1.59.76-2.42.29-.15-.1-.3-.38-.53-.47-.6-.28-1.06.38-1.74.19a2.86,2.86,0,0,1-1.74-1.13,4.71,4.71,0,0,1-1-1.23c-1-2-.08-3.78,0-6a9.09,9.09,0,0,0,.08-2.46,1.55,1.55,0,0,0-.23-.85c-.38-.57-1.13,0-1.44-.57a2.3,2.3,0,0,1,.15-1.42c.08-.66.45-.95.6-1.61a18.81,18.81,0,0,0,.3-2.17,14.94,14.94,0,0,1,.45-3.31,7.37,7.37,0,0,1,1.06-2.27,4.11,4.11,0,0,1,1.29-1.13,4.38,4.38,0,0,1,1.89-.28c.45.1.76.19,1.13.28a8,8,0,0,1,1.44.38,7.5,7.5,0,0,1,1.89.66,4.19,4.19,0,0,1,1.13,1,13.58,13.58,0,0,1,.83,1.42c.46.66.91.85,1.36,1.51a7.38,7.38,0,0,1,1.21,2.93,7.25,7.25,0,0,1,.15,1.8,13.56,13.56,0,0,0,.23,1.89c.15.95.6,1.42.68,2.36A8,8,0,0,1,302.85,291.26ZM312.9,328.5c-.3-.28-.61-.09-1-.09a7.81,7.81,0,0,1-2-.38,3.32,3.32,0,0,1-1.51-1.23,6.44,6.44,0,0,1-.83-2.55c-.08-.76-.08-1.23-.15-1.89-.15-.85-.38-1.42-.61-2.27a30.78,30.78,0,0,1-.76-3.59c-.15-1.13-.07-1.89-.15-3.12a27.51,27.51,0,0,0-.53-3.5,8.19,8.19,0,0,0-1.21-3.69,5.16,5.16,0,0,0-1.29-1.13c-.38-.38-.91-.38-.91-.94s.3-.76.53-1.13a5.7,5.7,0,0,1,1.21-.76,8.34,8.34,0,0,1,1.82-.95,5.68,5.68,0,0,0,1.21-.76,6.43,6.43,0,0,0,.91-1.61c.53-.76.91-1.13,1.36-1.89a15.6,15.6,0,0,0,1.51-2.46,10.16,10.16,0,0,0,.76-2.17,15.3,15.3,0,0,0,.08-2.65,15.5,15.5,0,0,0-.3-3.21,15.17,15.17,0,0,0-.83-3.69,12.27,12.27,0,0,0-1.21-2.55,13.42,13.42,0,0,0-1.82-2.46,20.76,20.76,0,0,0-1.89-2,16.32,16.32,0,0,0-4.46-3,9,9,0,0,0-1.66-.57c-.53-.1-.91.1-1.51,0a8.27,8.27,0,0,1-1.36-.57,8.31,8.31,0,0,0-2-.57,13.14,13.14,0,0,0-3.4-.38,14.24,14.24,0,0,0-2.87.38,18.5,18.5,0,0,0-2.27.19c-.53.19-.83.66-1.44.57-.45,0-.68-.47-1.21-.66-.76-.28-1.36,0-2.19,0-1,0-1.59-.09-2.5-.09-.6-.09-1.06-.38-1.66-.19a2.16,2.16,0,0,0-1,1.13,2.7,2.7,0,0,0,0,1.89,3.26,3.26,0,0,0,1,1.7c.45.47,1,.47,1.44.95a3.72,3.72,0,0,1,.76,1.61c.15.66-.23,1.32.08,1.89.23.38.53.47.68.76.53.94-.23,1.89-.15,3s.15,1.61.23,2.65a27.09,27.09,0,0,1,.3,3.5c0,1.51-.15,2.36-.15,3.78-.15,2.27-.23,3.59-.23,5.77v2.27c0,1.8.15,2.93.23,4.73,0,2.27.23,3.69.07,6-.07,1.23-.3,2-.38,3.31-.15,2,0,3.31,0,5.39s.38,3.21.15,5.29a10.39,10.39,0,0,1-.83,3.78,6.33,6.33,0,0,1-1.81,2.36c-.61.57-1.29.57-1.74,1.42a2.77,2.77,0,0,0-.53,1.51c.15,1.32,1.66.76,2.65.85a8.18,8.18,0,0,0,2.65-.28c1.06-.09,1.74-.47,2.8-.57a8.58,8.58,0,0,1,1.59-.09c.61,0,1,.19,1.59.19a16,16,0,0,0,3,0,19.62,19.62,0,0,0,2.34-.09,4.51,4.51,0,0,0,1.89-.38c.3-.09.75-.09.83-.57s-.38-.66-.68-.95c-.91-1.13-2.12-.85-3.1-2a7.19,7.19,0,0,1-1.13-2,14.07,14.07,0,0,1-.68-3.59c-.15-1.51.38-2.55-.08-4a4.29,4.29,0,0,0-.76-1.61c-.23-.28-.68-.28-.68-.76s.23-.76.38-1.13a14.78,14.78,0,0,1,.91-1.42,9.66,9.66,0,0,0,.15-3.31,11.62,11.62,0,0,0-.3-2.84c-.15-1.13-.83-1.61-.76-2.74a2.94,2.94,0,0,1,.3-1.42c.46-.95,1.21-1,2.12-1.32a4.6,4.6,0,0,1,2.49-.38,5.06,5.06,0,0,1,2.57,1.7,10.25,10.25,0,0,1,1.82,3,14.81,14.81,0,0,1,1.13,2.55,12.85,12.85,0,0,1,.45,4.54c0,1-.15,1.7-.07,2.74.07,1.7.68,2.65,1.13,4.35.38,1.42.68,2.27,1.13,3.69.3.95.45,1.51.83,2.46.3.66.68.95,1,1.61.15.47.23.75.38,1.23a7,7,0,0,0,1.66,2.36c.83.76,1.51,1.42,2.5,1.23a2.33,2.33,0,0,0,1.29-.57,6.77,6.77,0,0,0,2.42-2.08,12.71,12.71,0,0,0,1.59-3.69C312.45,329.73,313.43,329,312.9,328.5Z" transform="translate(-22.19 -247.78)" fill="#fff"/><path d="M327.88,274.05c-.45.76-1.06,1-1.51,1.8-.3.38-.38.94-.76,1.13a1.05,1.05,0,0,1-.53.09c-.53.28-.6.95-.83,1.61a9.55,9.55,0,0,0-.53,3c-.08,1,.08,1.7.08,2.84v1.23c0,2.27.22,3.5.3,5.67,0,.76.23,1.23,0,1.8-.15.28-.38.38-.53.76-.3.76.07,1.42.15,2.36,0,1.13.08,2,.08,3.12.07,2.93,0,4.73.07,7.66,0,.85.08,1.42.08,2.27a19.8,19.8,0,0,1,.22,2.08,10.87,10.87,0,0,1-.37,2.74,3.69,3.69,0,0,0-.38,1.32,9.51,9.51,0,0,0,.38,1.61,24.9,24.9,0,0,1,.3,3.4,24,24,0,0,1,.07,3.31c-.07.47-.22.85-.3,1.32a9.49,9.49,0,0,0,.3,2.93,17.39,17.39,0,0,0,.91,2.83,9.79,9.79,0,0,0,1.36,2.46c.45.66,1.36.66,1.44,1.61a2,2,0,0,1-.53,1.23c-.61.94-1.59.38-2.65.38s-1.66-.09-2.8-.19a8.9,8.9,0,0,0-1.66-.38,6.19,6.19,0,0,0-1.81.38c-.38.09-.61.28-.91.28a6.52,6.52,0,0,1-1.36-.09c-.53,0-.83.09-1.44.09a3,3,0,0,1-1.29-.09c-.61-.28-.83-.85-1.21-1.42-.3-.38-.68-.57-.68-1s.38-.66.68-1a9,9,0,0,1,1.21-1.32,11.86,11.86,0,0,0,1.13-1.7A12.13,12.13,0,0,0,316,327c.45-1.89,0-3.21.07-5.1s.61-3.12.38-4.91c-.08-.76-.3-1.23-.38-1.89-.15-1.32.3-2.08.3-3.4s-.15-2-.23-3.21.23-2.17-.08-3.4a10.45,10.45,0,0,1-.45-1.42,10.35,10.35,0,0,1,0-2.65,19,19,0,0,1-.23-2.93c.07-.94.3-1.51.45-2.46a13.7,13.7,0,0,0,.61-2.55,15.84,15.84,0,0,0-.3-2.65,17,17,0,0,0-.38-1.89c-.08-.47-.3-.76-.38-1.32-.23-1.23.3-2.08.3-3.4a17.66,17.66,0,0,0-.08-2.84,12,12,0,0,0-.53-1.8,6.84,6.84,0,0,0-.61-1.8,6.42,6.42,0,0,0-1.74-1.7c-.68-.47-1.43-.38-1.89-1.13a3.33,3.33,0,0,1-.45-1.7c0-1.51,1.44-1.89,2.65-2.17,1-.28,1.66.09,2.72.19s1.81.28,2.95.47c.61.1,1.06.47,1.66.38.76-.09,1.13-.76,1.81-.94a4.62,4.62,0,0,1,1.13-.09c.68,0,1.06.38,1.74.47.91.09,1.51-.66,2.27-.19s1.13.76,1.13,1.61C328.55,273.2,328.1,273.48,327.88,274.05Z" transform="translate(-22.19 -247.78)" fill="#fff"/><path d="M370.3,275.94a23.16,23.16,0,0,0-1.06,3.31,22.13,22.13,0,0,0,0,3.88,2.52,2.52,0,0,1,0,.76c-.15.57-.6.66-1.06.76a1.59,1.59,0,0,1-1.51-.47c-.37-.47-.3-1.13-.45-1.8-.15-.85-.08-1.51-.3-2.36a6.63,6.63,0,0,0-1.21-2.46,7.8,7.8,0,0,0-2.19-1.61c-.46-.38-.76-1-1.36-.94-.3,0-.53.28-.76.38a7,7,0,0,1-1.36.28c-.53,0-.83-.38-1.44-.57a5.3,5.3,0,0,0-1.74-.38c-.53.09-.91,0-1.28.38-.68.57-.46,1.61-.61,2.65a34.3,34.3,0,0,0,0,5.58,40.94,40.94,0,0,0,.08,4.35,10.14,10.14,0,0,1,.22,1.61,10.62,10.62,0,0,1-.3,1.51,21,21,0,0,0-.08,5.77c.08.85.23,1.32.3,2.17a17.37,17.37,0,0,1,.07,4.44c-.07.47-.23.76-.3,1.23a9.58,9.58,0,0,0-.08,3.59c.08.57.38.95.45,1.51a16,16,0,0,1,.07,3.31,15.74,15.74,0,0,0,.23,2.65c.08.38.3.66.38,1.13.07.76-.3,1.23-.3,2a11.3,11.3,0,0,0,.38,1.51l.23.85a14.11,14.11,0,0,1-.38,2.36,17.56,17.56,0,0,0-.23,2,8.46,8.46,0,0,0,.76,3.4,9.06,9.06,0,0,0,2.12,3.31c1,1,2.19.85,2.95,2.17.38.66,1,1.13.68,1.89-.15.38-.45.47-.76.66-.76.47-1.36.1-2.19,0a10,10,0,0,1-1.59-.47c-1.89-.38-3.1.09-5,0-1.29,0-2.12-.09-3.4-.09a24.74,24.74,0,0,0-2.65.09c-.91.19-1.43.38-2.34.57-.46.19-.76.66-1.21.47s-.75-.57-.91-1.13a2.56,2.56,0,0,1-.15-1.51,2.41,2.41,0,0,1,1.13-1.42c.45-.38.83-.47,1.29-.85a4.44,4.44,0,0,0,1.74-2,7.71,7.71,0,0,0,.38-2.65,12.86,12.86,0,0,0,.08-2.46c0-.66-.22-1.13-.3-1.89v-1.32a17.83,17.83,0,0,0,.3-2c0-.76-.08-1.23-.08-2-.07-1.61-.07-2.65-.22-4.25-.08-1.32-.23-2.17-.23-3.5,0-.66.08-1.13.08-1.8.15-3.21-.38-5.29.07-8.51l.23-1.13c.07-.85,0-1.42,0-2.27a20.31,20.31,0,0,0,0-3,8.87,8.87,0,0,1-.38-1.32c-.15-.38-.61-.75-.38-1.13s-.08-2,0-3.12a10.16,10.16,0,0,1,.15-1.51c0-.28.07-.57.07-.85a9,9,0,0,0,.15-2.84c-.08-.47-.3-.85-.38-1.32a7.41,7.41,0,0,1-.38-1.23,16.19,16.19,0,0,0-.38-2.08,4.18,4.18,0,0,0-.75-.95,6.22,6.22,0,0,0-1.29-1.32c-.46-.38-.76-.85-1.36-.94a1.85,1.85,0,0,0-1.51.38c-.38.19-.46.57-.83.76a11.32,11.32,0,0,1-1.59.66,4.91,4.91,0,0,0-1.89,1,4.31,4.31,0,0,0-1.28,1.89,5.66,5.66,0,0,1-.38,1.51c-.23.38-.61.47-.91.76a14,14,0,0,0-.83,1.42c-.45.66-.76,1.32-1.44,1.32a1.24,1.24,0,0,1-1.21-.66,2.21,2.21,0,0,1-.15-1.23c.07-.47.23-.76.3-1.13s.15-.85.23-1.32.07-.94.07-1.51-.3-1-.3-1.61.3-.94.3-1.61-.38-1-.6-1.7a9.58,9.58,0,0,1-.46-1.61,3.22,3.22,0,0,1,.08-1.23,1.54,1.54,0,0,1,1.29-.94,1.45,1.45,0,0,1,.91-.19,6.24,6.24,0,0,1,1.89.38c1.29.38,1.81,1.61,3.1,1.51a4.16,4.16,0,0,0,1.74-.57,8.58,8.58,0,0,0,1.14-.47c.38-.09.68-.28,1.13-.38a5,5,0,0,1,1.66.19c1.06.09,1.66.47,2.72.66.61.1,1,.28,1.51.38,1.13.28,1.89.95,3,.85a11.16,11.16,0,0,0,1.59-.66,8,8,0,0,0,1.44-.28c.45-.28.68-.66,1.13-.85a4.09,4.09,0,0,1,1.51-.09c1.44-.1,2.34-.28,3.78-.28a12.65,12.65,0,0,1,1.89,0,6,6,0,0,1,1.59.76,5.29,5.29,0,0,0,2,.66,8.47,8.47,0,0,0,2.19-.57,17.81,17.81,0,0,1,3.33-.85c.68,0,1.28-.57,1.89,0s.38,1.61.38,2.65A14,14,0,0,1,370.3,275.94Z" transform="translate(-22.19 -247.78)" fill="#fff"/><path d="M388.06,301.37a3.32,3.32,0,0,1-.23,1.51c-.38.76-1.13.66-1.89.85a11.55,11.55,0,0,1-1.81.1,5.15,5.15,0,0,1-1.21-.1c-.53-.09-1.06,0-1.51-.47a3.28,3.28,0,0,1-.53-2c-.08-.66-.08-1-.15-1.7a20.66,20.66,0,0,1,0-2.17,19.83,19.83,0,0,1,.76-2.36c.15-.57.23-1,.38-1.7.3-.85.68-1.32,1.06-2.17a11.66,11.66,0,0,0,.68-1.42,7.43,7.43,0,0,1,.3-1.42,1.18,1.18,0,0,1,.45-.76,1.36,1.36,0,0,1,1.06-.09,1.5,1.5,0,0,1,1.13.66,1.88,1.88,0,0,1,.23,1.13c0,.19-.23.28-.38.57A2.79,2.79,0,0,0,386,291c0,.57.38.85.61,1.32a5.4,5.4,0,0,1,.45.95c.23.76-.07,1.32,0,2a17.78,17.78,0,0,0,.38,2.17A13.47,13.47,0,0,1,388,300,4.36,4.36,0,0,1,388.06,301.37Zm20.34,32.8a2.39,2.39,0,0,0-1.06-1.32c-.68-.57-1.28-.57-1.89-1.13a5.81,5.81,0,0,1-1.51-2.17,20.84,20.84,0,0,1-.45-2.08,6.86,6.86,0,0,0-1.06-2.17c-.3-.38-.76-.38-1-.94s-.08-1.23-.15-2a13.38,13.38,0,0,0-.22-1.7c-.15-.66-.38-1.13-.61-1.89-.15-.38-.23-.76-.38-1.13-.15-.57-.3-.95-.45-1.51s-.3-.95-.45-1.51-.38-1.13-.61-1.8c-.3-.94-.53-1.51-.83-2.46s-.53-1.61-.83-2.46c-.38-1-1-1.51-1.13-2.65a13.43,13.43,0,0,1,0-2.46,7.45,7.45,0,0,0-.23-1.89,3.37,3.37,0,0,0-.38-.76,8.84,8.84,0,0,1-.45-1.32c-.23-.76-.23-1.32-.38-2a14,14,0,0,1-.46-1.7c-.15-.76.08-1.32-.15-2a6.43,6.43,0,0,0-.53-1.32c-.45-1.23-.22-2.17-.68-3.4-.23-.76-.6-1.13-.83-1.89a8.32,8.32,0,0,1-.38-1.89c-.15-1-.15-1.8-.38-2.84a25.87,25.87,0,0,0-.83-2.65c-.3-.85-.61-1.32-.91-2.17a20.36,20.36,0,0,1-.6-2.08,9.46,9.46,0,0,1-.38-1.89c-.15-1,.15-1.7-.15-2.65a1.67,1.67,0,0,0-.68-1.32,1.54,1.54,0,0,0-1.44,0,2.82,2.82,0,0,0-1.21,1.23c-.68,1.13-.15,2.27-.23,3.69a18.6,18.6,0,0,1-.07,2,10.06,10.06,0,0,1-.08,1.51,9.78,9.78,0,0,1-.61,2.17,12.09,12.09,0,0,0-.6,1.13,14,14,0,0,0-.38,1.7,20.72,20.72,0,0,1-.68,2.36c-.23.57-.46.94-.68,1.42-.23.76-.45,1.23-.68,1.89a14.25,14.25,0,0,1-.53,1.7c-.22.57-.38,1-.61,1.61-.07.47-.15.76-.23,1.23-.23.85-.23,1.51-.53,2.36a8,8,0,0,1-.83,2.08c-.23.47-.53.76-.76,1.23a9.88,9.88,0,0,0-.46,2.17c-.15.76-.3,1.23-.45,1.89s-.22,1.13-.38,1.79a18.62,18.62,0,0,1-1.29,2.36c-.3.75-.61,1.32-.91,2.08s-.53,1.32-.76,2.17-.3,1.32-.45,2.08-.23,1.32-.38,2.17a5.64,5.64,0,0,1-.3,2.27c-.3.76-1,.76-1.51,1.42s-.61,1.42-1,2.17-.61,1-.91,1.61c-.68,1.51-1.13,2.46-1.74,4.06a14.92,14.92,0,0,1-.91,2,4.93,4.93,0,0,1-1.59,1.42,21.93,21.93,0,0,1-2.19,1.8c-.6.38-1.21.28-1.66.94a2.33,2.33,0,0,0-.46,1.61c.08,1.23,1.29,1.13,2.27,1.61a11.86,11.86,0,0,0,3.17.57,17,17,0,0,0,3.1.19c.76,0,1.28-.19,2-.19,1.13,0,1.74.38,2.88.28.6,0,1.29.38,1.66-.19a2,2,0,0,0,.38-.95,3.88,3.88,0,0,0-.15-2.08,5,5,0,0,0-.83-1.32,12.38,12.38,0,0,0-1.29-1,5.58,5.58,0,0,1-1.13-1.61,3.86,3.86,0,0,1-.61-1.89,9.09,9.09,0,0,1,.38-2.36,16.65,16.65,0,0,1,.83-3.4c.22-.76.6-1.13.83-1.89a21.84,21.84,0,0,0,.6-2.46,13,13,0,0,1,.46-1.61c.23-.66.53-1,.76-1.7a20.89,20.89,0,0,0,.45-2.08,10.09,10.09,0,0,1,.61-2.17,3.62,3.62,0,0,1,1.36-1.61,3.86,3.86,0,0,1,1.74-.57,7.19,7.19,0,0,1,1.44,0c.38-.1.61-.1,1-.19.76,0,1.21-.19,1.89-.19a9.26,9.26,0,0,1,2.27-.09,5.24,5.24,0,0,1,1.74.19,3.19,3.19,0,0,1,1.21.47,3.49,3.49,0,0,1,.53.57,5.42,5.42,0,0,1,.76,1.13,5.75,5.75,0,0,1,.68,1.61c.15.76-.07,1.23.08,1.89a4.28,4.28,0,0,0,.68,1.51,7.28,7.28,0,0,0,.45.85,9.07,9.07,0,0,1,.3,2,10.45,10.45,0,0,0,.46,1.42,4.93,4.93,0,0,0,.61,1.13c.3.76.91.95,1,1.8.15.57-.08.95-.08,1.51a8.33,8.33,0,0,0,.61,2.36c.15.47.3.76.46,1.23a12,12,0,0,1,.3,1.61,16.52,16.52,0,0,1,.08,1.89,4.23,4.23,0,0,1-.23,1.42,3,3,0,0,1-1.13,1.8c-.61.57-1.21.47-1.89.85-.53.28-1.36.28-1.36,1a1.24,1.24,0,0,0,.38,1c.68,1.13,1.81.19,2.88.1.45,0,.75-.1,1.13-.1,1.13-.09,1.74-.19,2.87-.19s1.89.09,3.1.09c1.44,0,2.27.09,3.63.09.68,0,1.13.29,1.74,0a1.75,1.75,0,0,0,1.21-1.13A2.34,2.34,0,0,0,408.41,334.17Z" transform="translate(-22.19 -247.78)" fill="#fff"/><path d="M448.7,273.11a4.13,4.13,0,0,1-1,1.42,12.87,12.87,0,0,1-1.82,1.13,11.29,11.29,0,0,0-2.34,2.08,8.48,8.48,0,0,0-1.29,1.7c-.46.94-.46,1.7-.91,2.74-.38.76-.76,1.23-1.21,2a10.9,10.9,0,0,0-1.06,1.61c-.3.85-.23,1.51-.45,2.36a10.93,10.93,0,0,1-.38,1.7,5.65,5.65,0,0,1-.83,1.13,13,13,0,0,0-1.21,2.36,32.15,32.15,0,0,0-1,3.69c-.38,1.32-.76,2.08-1.21,3.4-.38,1.13-.76,1.79-1.06,2.93s-.22,1.7-.45,2.74-.53,1.8-.83,2.93c-.3.85-.6,1.42-.91,2.27s-.53,1.51-.83,2.36c-.46,1.13-.76,1.8-1.21,2.93s-.76,1.8-1.13,2.93-.61,1.89-1,3c-.38,1.61-.53,2.65-.91,4.16s-.68,2.55-1.13,4.16a20,20,0,0,1-1.21,4.35c-.53,1-.76,2.27-1.81,2.46a2,2,0,0,1-1.59-.47c-.83-.57-1-1.61-1.29-2.83s-.07-2.08-.53-3.31a6.35,6.35,0,0,0-.45-1,16.68,16.68,0,0,1-.76-3.4,4.64,4.64,0,0,0-.3-1.8c-.15-.38-.53-.47-.76-.94-.23-.66.15-1.23.15-2a7.16,7.16,0,0,0-.15-1.79c-.15-.85-.68-1.23-1.13-2-.15-.38-.45-.57-.53-1a11.34,11.34,0,0,1-.08-1.61,9.71,9.71,0,0,0-.38-1.61c-.45-1.32-1.21-1.89-1.66-3.31a13.15,13.15,0,0,1-.45-3c-.08-1.23.38-2,.07-3.21a8.33,8.33,0,0,0-1-2.27,11.8,11.8,0,0,1-1.29-2.65,22.81,22.81,0,0,1-.53-2.46,3.77,3.77,0,0,0-.38-1.89c-.23-.47-.68-.38-1-.76-.68-.57-.76-1.42-1.13-2.36a15.65,15.65,0,0,1-.91-2.08c-.23-.95-.38-1.51-.61-2.46s-.38-1.61-.61-2.55a25,25,0,0,0-.91-2.65,30.15,30.15,0,0,0-1.36-2.84,11.74,11.74,0,0,0-2-3.21c-.68-.57-1.29-.47-2-1-.53-.47-1-.66-1.28-1.42a2.55,2.55,0,0,1,.15-2.46,2.18,2.18,0,0,1,1.21-.76,5.69,5.69,0,0,1,2.2-.09,15.55,15.55,0,0,1,3.63,0c.61.09,1.06.38,1.66.47s.83.19,1.36.28a10.56,10.56,0,0,0,2.42-.28c.38-.09.61-.28,1-.38a19.57,19.57,0,0,1,2.35,0c.61,0,1-.28,1.59-.28s1.13-.47,1.74-.19a2.53,2.53,0,0,1,.91,1.32,3,3,0,0,1,.3,1.42,3.92,3.92,0,0,1-.38,2.27c-.3.66-.83.85-1.29,1.42a5.19,5.19,0,0,0-1,.94,4.19,4.19,0,0,0-1.21,2.08,7,7,0,0,0,.3,2.74,18.31,18.31,0,0,0,.53,2.84c.22.85.53,1.51.83,2.36.3.66.6,1.13,1,1.89a18.49,18.49,0,0,1,.83,1.7c.38,1.23.07,2.17.38,3.31a18.81,18.81,0,0,0,1,2.27,22.41,22.41,0,0,1,.76,3.31,9.06,9.06,0,0,0,.15,2.46,6.69,6.69,0,0,0,.61.94,21.58,21.58,0,0,1,.53,2.36,11.46,11.46,0,0,1,.45,1.51c.15.66-.15,1.13.15,1.7.15.38.53.38.76.76a6.63,6.63,0,0,1,.23,2.17c.15.76,0,1.42.38,2a1.91,1.91,0,0,0,1.28.76c.76,0,1.21-.66,1.74-1.23,1.06-1,1.14-2.27,1.82-3.78.23-.66.23-1.42.76-1.8.15-.09.38-.09.53-.19.53-.38.22-1.32.38-2s.31-1.13.46-1.7.45-1,.68-1.8c.3-.95.38-1.61.6-2.55a7.31,7.31,0,0,1,.38-2.17,2.83,2.83,0,0,1,.45-.85,23.25,23.25,0,0,0,1.66-3.78A25,25,0,0,0,434,290a14.66,14.66,0,0,1,.53-2.65c.23-.66.61-.85.83-1.42.61-1.51.3-2.65.38-4.25.08-.47.08-.85.15-1.32a11.66,11.66,0,0,0,.08-1.61,3.66,3.66,0,0,0-1.06-1.8c-.76-.95-1.81-.66-2.42-1.8a3.41,3.41,0,0,1-.76-2.08,3,3,0,0,1,.61-2.17c.68-.66,1.36-.28,2.19-.28a13.56,13.56,0,0,1,2,0,17.7,17.7,0,0,1,2.27.09c1.21.09,1.89.28,3.1.38h1.59a12.93,12.93,0,0,0,3.33-.19c.6-.09,1-.66,1.51-.47a1.58,1.58,0,0,1,1,.95C449.38,272.07,449,272.54,448.7,273.11Z" transform="translate(-22.19 -247.78)" fill="#fff"/><path d="M463.75,274.05c-.45.76-1.06,1-1.51,1.8-.3.38-.38.94-.76,1.13a1,1,0,0,1-.53.09c-.53.28-.61.95-.83,1.61a9.5,9.5,0,0,0-.53,3c-.08,1,.08,1.7.08,2.84v1.23c0,2.27.22,3.5.3,5.67,0,.76.23,1.23,0,1.8-.15.28-.38.38-.53.76-.3.76.07,1.42.15,2.36,0,1.13.08,2,.08,3.12.07,2.93,0,4.73.07,7.66,0,.85.08,1.42.08,2.27a19.8,19.8,0,0,1,.23,2.08,10.87,10.87,0,0,1-.38,2.74,3.69,3.69,0,0,0-.38,1.32,9.51,9.51,0,0,0,.38,1.61,24.88,24.88,0,0,1,.3,3.4,24,24,0,0,1,.08,3.31c-.08.47-.23.85-.3,1.32a9.43,9.43,0,0,0,.3,2.93,17.21,17.21,0,0,0,.91,2.83,9.72,9.72,0,0,0,1.36,2.46c.46.66,1.36.66,1.44,1.61a2,2,0,0,1-.53,1.23c-.61.94-1.59.38-2.65.38s-1.66-.09-2.8-.19a8.9,8.9,0,0,0-1.66-.38,6.21,6.21,0,0,0-1.81.38c-.38.09-.61.28-.91.28a6.53,6.53,0,0,1-1.36-.09c-.53,0-.83.09-1.44.09a3,3,0,0,1-1.29-.09c-.6-.28-.83-.85-1.21-1.42-.3-.38-.68-.57-.68-1s.38-.66.68-1a9.08,9.08,0,0,1,1.21-1.32,11.88,11.88,0,0,0,1.13-1.7,12.06,12.06,0,0,0,1.44-3.12c.46-1.89,0-3.21.08-5.1s.61-3.12.38-4.91c-.08-.76-.3-1.23-.38-1.89-.15-1.32.3-2.08.3-3.4s-.15-2-.23-3.21.23-2.17-.08-3.4a6.74,6.74,0,0,1-.45-4.06,19,19,0,0,1-.23-2.93c.08-.94.3-1.51.46-2.46a14,14,0,0,0,.61-2.55,15.65,15.65,0,0,0-.3-2.65,17,17,0,0,0-.38-1.89c-.08-.47-.3-.76-.38-1.32-.23-1.23.3-2.08.3-3.4a17.88,17.88,0,0,0-.07-2.84,12,12,0,0,0-.53-1.8,6.91,6.91,0,0,0-.61-1.8,6.44,6.44,0,0,0-1.74-1.7c-.68-.47-1.44-.38-1.89-1.13a3.34,3.34,0,0,1-.45-1.7c0-1.51,1.44-1.89,2.65-2.17,1-.28,1.66.09,2.72.19s1.81.28,2.95.47c.61.1,1.06.47,1.66.38.76-.09,1.13-.76,1.81-.94a4.64,4.64,0,0,1,1.14-.09c.68,0,1.06.38,1.74.47.91.09,1.51-.66,2.27-.19.61.38,1.13.76,1.13,1.61C464.43,273.2,464,273.48,463.75,274.05Z" transform="translate(-22.19 -247.78)" fill="#fff"/><path d="M503.6,323.77a6.58,6.58,0,0,0-.23,1.32,12.3,12.3,0,0,0,.38,1.61,14.13,14.13,0,0,1,0,1.8c0,.47-.08.85-.08,1.32-.15,2,.83,3.5,0,5.2a3.78,3.78,0,0,1-.68.95c-1.06,1-2.19.28-3.48.28a30.7,30.7,0,0,1-4.16.19,5.32,5.32,0,0,0-1.21-.19,19.43,19.43,0,0,0-2.42.28c-1.66.09-2.72,0-4.39,0a43,43,0,0,1-6.05,0,10.55,10.55,0,0,1-1.66-.38c-.6-.09-1-.38-1.51-.47a5,5,0,0,0-1.66.09c-.76.19-1.29.47-2,.66-1,.09-1.66-.09-2.72,0-.83,0-1.36.19-2.19.19a14.81,14.81,0,0,1-2,0c-.76-.09-1.36.09-2-.47a1.5,1.5,0,0,1-.68-1c-.08-.66.3-1,.68-1.51.38-.66.91-.85,1.51-1.32a13.27,13.27,0,0,0,1.66-1.42,5.12,5.12,0,0,0,1.21-2,11.48,11.48,0,0,0,.23-2.27c.07-1.42,0-2.27.07-3.69a8,8,0,0,1,.08-1.89c.15-.57.68-.85.76-1.42a4.56,4.56,0,0,0-.15-2.27,24.15,24.15,0,0,0-.68-2.55,11.19,11.19,0,0,1-.53-2.17,7.55,7.55,0,0,1,0-2.27c.07-1.13.38-1.8.53-2.84s.08-1.61.23-2.46a18.67,18.67,0,0,0,.23-1.89,3.26,3.26,0,0,0-.08-1.23c-.07-.19-.22-.28-.38-.47a5.18,5.18,0,0,1-.3-2.27,11.31,11.31,0,0,1,.23-2.27c.23-1.13.75-1.7.91-2.84a14.93,14.93,0,0,0-.08-3.69c0-.95-.07-1.51-.07-2.46s-.15-1.51-.23-2.36v-3.12c.07-.47.07-.85.15-1.42a6.44,6.44,0,0,0,0-1.7,5,5,0,0,0-.6-1.13,5.55,5.55,0,0,0-.68-1.42c-.46-.76-1-.85-1.59-1.32a7.1,7.1,0,0,1-1.21-1,3.64,3.64,0,0,1-.76-1.8,2.6,2.6,0,0,1,.15-1.7c.46-.57,1.06-.28,1.74-.28a6.42,6.42,0,0,1,1.89.19c.83.19,1.29.57,2,.76a12.74,12.74,0,0,0,1.89,0,25.56,25.56,0,0,0,2.65.09c1.21-.19,1.81-1.13,3-1.23a10.2,10.2,0,0,1,1.66.28,7.54,7.54,0,0,0,1.44.19c.76.09,1.21-.47,1.89-.19.45.19,1,.28,1.06.85a1.71,1.71,0,0,1-.38,1.13c-.38.66-.91.76-1.44,1.23a5.71,5.71,0,0,0-1.29,1.13,5.92,5.92,0,0,0-1.06,1.7,22.51,22.51,0,0,0-.6,2.46,14.07,14.07,0,0,0-.76,2,9.29,9.29,0,0,0,.15,2.46v3.21c-.07.94-.15,1.7-.23,2.65a14.48,14.48,0,0,1-.07,2.55c-.15.57-.3,1-.46,1.61a12.77,12.77,0,0,1-.68,1.89c-.08.19-.23.28-.3.47-.15.66.91.47,1.21.94a3.4,3.4,0,0,1,.68,1.32,4.08,4.08,0,0,1,.22,1,6.91,6.91,0,0,1-.53,1,14.82,14.82,0,0,0-.23,1.89,30.7,30.7,0,0,0-.22,3.69c0,1.7-.3,2.93.22,4.54a12.57,12.57,0,0,0,.76,1.8,11.86,11.86,0,0,1,.45,3.31c0,.57-.08.85-.08,1.42s.08.95,0,1.51-.46,1-.6,1.8a10,10,0,0,0-.15,2.17,6.53,6.53,0,0,0,.15,3.21c.22.47.53.76.76,1.23a12.22,12.22,0,0,0,.61,1.51c.6,1,1.59,1,2.65,1.42a14.47,14.47,0,0,0,2.12.47c2,.38,3.33.85,5.44.57a8.1,8.1,0,0,1,1.44-.38,4.18,4.18,0,0,1,1.13.19c1,0,1.66.47,2.57,0a4.19,4.19,0,0,0,1.51-1.7,8.81,8.81,0,0,0,.83-2c.15-.57.23-.95.38-1.42s.3-.57.46-.95c.38-.76.15-1.51.6-2.27s.91-1.32,1.66-1.32a1.55,1.55,0,0,1,1.51,1.23C504,322.83,503.67,323.2,503.6,323.77Z" transform="translate(-22.19 -247.78)" fill="#fff"/><path d="M541.78,323.77a6.57,6.57,0,0,0-.23,1.32,12.63,12.63,0,0,0,.38,1.61,14.12,14.12,0,0,1,0,1.8c0,.47-.07.85-.07,1.32-.15,2,.83,3.5,0,5.2a3.94,3.94,0,0,1-.68.95c-1.06,1-2.19.28-3.48.28a30.73,30.73,0,0,1-4.16.19,5.35,5.35,0,0,0-1.21-.19,19.43,19.43,0,0,0-2.42.28c-1.66.09-2.72,0-4.39,0a43,43,0,0,1-6,0,10.46,10.46,0,0,1-1.66-.38c-.6-.09-1-.38-1.51-.47a5,5,0,0,0-1.66.09c-.76.19-1.29.47-2,.66-1,.09-1.66-.09-2.72,0-.83,0-1.36.19-2.19.19a14.89,14.89,0,0,1-2,0c-.75-.09-1.36.09-2-.47a1.52,1.52,0,0,1-.68-1c-.08-.66.3-1,.68-1.51.38-.66.91-.85,1.51-1.32a13.12,13.12,0,0,0,1.66-1.42,5.12,5.12,0,0,0,1.21-2,11.48,11.48,0,0,0,.23-2.27c.08-1.42,0-2.27.08-3.69a7.77,7.77,0,0,1,.08-1.89c.15-.57.68-.85.75-1.42a4.53,4.53,0,0,0-.15-2.27,23.27,23.27,0,0,0-.68-2.55,11.33,11.33,0,0,1-.53-2.17,7.61,7.61,0,0,1,0-2.27c.08-1.13.38-1.8.53-2.84s.08-1.61.23-2.46a18.67,18.67,0,0,0,.23-1.89,3.22,3.22,0,0,0-.08-1.23c-.07-.19-.22-.28-.38-.47a5.21,5.21,0,0,1-.3-2.27,11.6,11.6,0,0,1,.23-2.27c.23-1.13.76-1.7.91-2.84a14.93,14.93,0,0,0-.08-3.69c0-.95-.08-1.51-.08-2.46s-.15-1.51-.22-2.36v-3.12c.08-.47.08-.85.15-1.42a6.44,6.44,0,0,0,0-1.7,5,5,0,0,0-.6-1.13,5.61,5.61,0,0,0-.68-1.42c-.46-.76-1-.85-1.59-1.32a7,7,0,0,1-1.21-1,3.64,3.64,0,0,1-.76-1.8,2.58,2.58,0,0,1,.15-1.7c.45-.57,1.06-.28,1.74-.28a6.42,6.42,0,0,1,1.89.19c.83.19,1.28.57,2,.76a12.71,12.71,0,0,0,1.89,0,25.58,25.58,0,0,0,2.65.09c1.21-.19,1.82-1.13,3-1.23a10.22,10.22,0,0,1,1.66.28,7.52,7.52,0,0,0,1.44.19c.76.09,1.21-.47,1.89-.19.45.19,1,.28,1.06.85a1.69,1.69,0,0,1-.38,1.13c-.38.66-.91.76-1.44,1.23a5.77,5.77,0,0,0-1.29,1.13,5.92,5.92,0,0,0-1.06,1.7,23,23,0,0,0-.61,2.46,14.31,14.31,0,0,0-.75,2,9.12,9.12,0,0,0,.15,2.46v3.21c-.07.94-.15,1.7-.23,2.65a14.11,14.11,0,0,1-.08,2.55c-.15.57-.3,1-.45,1.61a13.25,13.25,0,0,1-.68,1.89c-.08.19-.23.28-.3.47-.15.66.91.47,1.21.94a3.37,3.37,0,0,1,.68,1.32,4,4,0,0,1,.23,1,6.73,6.73,0,0,1-.53,1,13.27,13.27,0,0,0-.23,1.89,29.92,29.92,0,0,0-.23,3.69c0,1.7-.3,2.93.23,4.54a11.93,11.93,0,0,0,.76,1.8,11.86,11.86,0,0,1,.46,3.31c0,.57-.07.85-.07,1.42s.07.95,0,1.51-.46,1-.61,1.8a10.13,10.13,0,0,0-.15,2.17,6.51,6.51,0,0,0,.15,3.21c.23.47.53.76.76,1.23a12.19,12.19,0,0,0,.6,1.51c.61,1,1.59,1,2.65,1.42a14.51,14.51,0,0,0,2.12.47c2,.38,3.33.85,5.45.57a8.09,8.09,0,0,1,1.44-.38,4.18,4.18,0,0,1,1.13.19c1,0,1.66.47,2.57,0a4.17,4.17,0,0,0,1.51-1.7,9,9,0,0,0,.83-2c.15-.57.22-.95.38-1.42s.3-.57.46-.95c.38-.76.15-1.51.6-2.27s.91-1.32,1.66-1.32a1.55,1.55,0,0,1,1.51,1.23C542.16,322.83,541.86,323.2,541.78,323.77Z" transform="translate(-22.19 -247.78)" fill="#fff"/><path d="M591.79,265a1.77,1.77,0,0,1-1.31.5c-1.21,0-1.81-1.51-2.52-2.77-.5-1-.4-2-1-3-.81-1.26-1.82-1.39-3-2.14-2-1.39-3.13-2.65-5.34-3.28a7.08,7.08,0,0,0-2.22-.5,5.42,5.42,0,0,0-2,.5c-.71.13-1,.63-1.71.63-.91,0-1.21-1-2.12-1.51a9.05,9.05,0,0,0-3.12-.88,5.24,5.24,0,0,0-2.42,0,3.63,3.63,0,0,0-2,1.26,4.31,4.31,0,0,0-.71,2.77c-.1,1.51.61,2.27.81,3.65a9.47,9.47,0,0,1,.4,3.4,15.69,15.69,0,0,1-.7,3.66c-.3,1.26-1,1.89-1,3.28a7.31,7.31,0,0,0,.5,2.9c.1.76.51,1.26.61,2a10.21,10.21,0,0,1,.1,3,24.74,24.74,0,0,1-.51,2.65,16.51,16.51,0,0,0,.1,3.15,4.57,4.57,0,0,0,.51,2.39c.51.63,1,.63,1.71.88.4,0,.71.13,1.21.13a8,8,0,0,0,2.93-.5,27.11,27.11,0,0,0,2.52-1.51A6.73,6.73,0,0,0,573,285c1-.76,1-2,1.61-3.15.81-1.26,1.11-2.9,2.42-3a2.51,2.51,0,0,1,1.61.5c1,.88.5,2.52.5,4a17.25,17.25,0,0,1-.2,3.28c-.2.88-.61,1.39-.81,2.27-.3,1.76.51,2.9.71,4.66a38.05,38.05,0,0,1,.2,7.56,2.44,2.44,0,0,1-1.92,2.27c-1.21.13-1.81-1.13-2.62-2.39-.61-1-.4-2.14-1.11-3s-1.41-.76-2.32-1.13A14.52,14.52,0,0,1,569,296c-1.21-.63-1.71-1.76-2.92-2.39a5.65,5.65,0,0,0-3.12-.88c-.81.13-1.61.13-2,.88a4.27,4.27,0,0,0-.1,2.27,13.76,13.76,0,0,0,.91,2.65,16.51,16.51,0,0,1,.5,3.91,15.34,15.34,0,0,1-.71,3.78c-.2,1-.71,1.51-.71,2.52a13.12,13.12,0,0,0,.4,2.14c.1.88,0,1.51.1,2.39s.61,1.51.61,2.52a12.17,12.17,0,0,1-.4,2.65,27.82,27.82,0,0,0-.2,2.9,18.06,18.06,0,0,0,.4,3.28,7.64,7.64,0,0,0,.6,3,5.21,5.21,0,0,0,1.62,2.14,6.1,6.1,0,0,0,2.12,1.76,6.91,6.91,0,0,0,3.53.5,8.39,8.39,0,0,0,3.53-1c.61-.25.91-.5,1.51-.75.91-.25,1.62.13,2.52-.12a6.06,6.06,0,0,0,2.52-1.14c1.21-.88,1.62-1.89,2.52-3.28.3-.51.6-.88.91-1.39a26,26,0,0,0,.71-3c.7-2,.91-3.65,2.42-4.79.71-.38,1.21-.88,2-.76a2,2,0,0,1,1.21,1c.71.88.2,2,.3,3.28a7.6,7.6,0,0,1,.1,2.14c-.1.88-.8,1.13-1,1.89a8.31,8.31,0,0,0,.1,3.15c.2,1.26.61,2,.71,3.15a10.24,10.24,0,0,1-.4,3.53,4.45,4.45,0,0,1-1.81,2.77c-1.31,1-2.42.13-3.83,0-1.11,0-1.81-.25-2.82-.25-1.71-.12-2.72,0-4.44,0a39.06,39.06,0,0,0-5.44.13,25.15,25.15,0,0,1-3,.5,23.65,23.65,0,0,1-3.12-.63c-1.61-.25-2.62-.25-4.23-.38-1.21,0-2-.12-3.33-.12s-2.32.38-3.73.5c-3.43.25-6.25,0-8.87,0s-2.92-.25-3-1.89a4,4,0,0,1,.5-1.89c.51-1,1.41-1,2.32-1.64a11.58,11.58,0,0,0,2.32-1.89,7.28,7.28,0,0,0,1.81-2.27,10.3,10.3,0,0,0,.6-3.53c.2-1.26.2-2.14.3-3.4,0-1.51,0-2.39.1-3.78.1-2.39.3-3.91.2-6.18,0-.88-.2-1.64-.2-2.65,0-1.51.5-2.39.5-3.91a29.27,29.27,0,0,0-.4-3.15c-.1-1.64-.4-2.77.1-4.29.3-.88,1-1.13,1.21-2a5.34,5.34,0,0,0-.2-2.52c-.2-1.14-1.11-1.51-1.21-2.65a8.76,8.76,0,0,1,.2-2.27,9.64,9.64,0,0,0,.4-1.64,18.51,18.51,0,0,0-.5-2.27,17.14,17.14,0,0,1,.5-3.78c.2-1.26.3-2.14.61-3.4a21.15,21.15,0,0,0,1.21-3.28,15.33,15.33,0,0,0-.3-3.78,29.38,29.38,0,0,0-.5-2.9c-.21-1.76-.21-2.9-.51-4.66a7.59,7.59,0,0,0-.51-2.65c-.5-1.13-1.21-1.39-2-2.27-1.11-1.13-2-1.76-3.12-2.9-.81-.88-1.92-1.13-2-2.39a3.72,3.72,0,0,1,.71-2.27c.61-.63,1.91-.63,3-.63a22.14,22.14,0,0,1,2.82.5l3.13.63c1.31.38,2.12,1.13,3.43,1.13a9.22,9.22,0,0,0,2.52-.63,9,9,0,0,1,2.42-.76,21.32,21.32,0,0,1,2.82.25,17,17,0,0,0,2.52-.25c1.41-.25,2.32-.76,3.73-.88a30.38,30.38,0,0,1,3.53.5c1.11.13,1.82,0,2.82.13,1.21.25,1.81,1,2.93,1.13.8,0,1.21-.13,1.92-.13a16.1,16.1,0,0,1,2.42-.38,8.33,8.33,0,0,1,3,.38,6.11,6.11,0,0,1,3.63,2,4.73,4.73,0,0,1,1.11,1.76c.71,1.51.41,2.77.51,4.54a17.24,17.24,0,0,1,.4,3.91C592.39,263,592.7,264.29,591.79,265Z" transform="translate(-22.19 -247.78)" fill="#fff"/><path d="M597.94,329.7a4.35,4.35,0,1,1-4.32,4.34,4.28,4.28,0,0,1,4.32-4.34Zm0,.68a3.68,3.68,0,0,0,0,7.35,3.68,3.68,0,0,0,0-7.35Zm-.81,6.19h-.77v-4.84a8.8,8.8,0,0,1,1.37-.11,2.55,2.55,0,0,1,1.51.37,1.16,1.16,0,0,1,.44,1,1.21,1.21,0,0,1-.95,1.18v0c.43.08.71.46.81,1.18a4.08,4.08,0,0,0,.31,1.2H599a3.52,3.52,0,0,1-.33-1.23.91.91,0,0,0-1-.85h-.54Zm0-2.68h.56c.64,0,1.18-.23,1.18-.83,0-.42-.31-.85-1.18-.85a3.9,3.9,0,0,0-.56,0Z" transform="translate(-22.19 -247.78)" fill="#fff"/></svg>