<svg width="128" height="69" viewBox="0 0 128 69" fill="none" xmlns="http://www.w3.org/2000/svg">
<g clip-path="url(#clip0_3172_846)">
<mask id="mask0_3172_846" style="mask-type:luminance" maskUnits="userSpaceOnUse" x="0" y="0" width="128" height="40">
<path d="M127.434 0H0V39.7246H127.434V0Z" fill="white"/>
</mask>
<g mask="url(#mask0_3172_846)">
<path fill-rule="evenodd" clip-rule="evenodd" d="M60.6878 1.58289C59.7363 2.36947 59.0963 3.46936 58.8825 4.68525C58.5115 7.22684 60.2595 9.18744 62.8035 9.18744C65.3996 9.18744 67.5727 7.43948 67.9437 5.00171C68.3664 2.4057 66.6184 0.393172 64.0743 0.393172C62.84 0.37451 61.6393 0.796305 60.6878 1.58289ZM38.6977 22.8919C38.7593 21.7045 38.7412 20.5142 38.6435 19.3292H19.2302L15.942 26.0912H30.398C29.2978 29.9951 25.1739 32.4675 20.2291 32.4675C12.7501 32.4675 7.80535 27.4659 7.80535 20.375C7.80535 13.4474 12.8639 8.39137 19.6234 8.39137C24.7362 8.39137 27.76 11.0244 29.3028 14.1075H37.709C35.674 6.30217 29.1347 1.02364 19.6234 1.02364C8.29982 1.02364 0 9.26904 0 20.375C0 31.5873 8.19104 39.7241 20.2291 39.7043C31.2807 39.7043 38.2577 31.8519 38.6977 22.8919ZM45.9519 1.62936L40.0156 39.1181H47.6035L53.537 1.62936H45.9519ZM54.2492 39.1181L58.3161 13.2817H65.9016L61.8343 39.1181H54.2492ZM99.7586 1.62936H92.1731L89.8616 16.0854C88.4892 14.0531 86.017 12.6785 82.4442 12.6785C76.3968 12.6785 69.9685 16.7456 68.646 25.1022C67.0513 35.2143 73.6474 39.7241 78.7604 39.7241C82.1699 39.7241 84.9735 38.3468 86.9515 35.8746L88.5883 39.1181H97.0092L95.1154 32.2227L99.7586 1.62936ZM83.1589 19.2748C86.0711 19.2748 89.2039 21.9129 88.4892 26.5313C87.7204 31.4785 83.9823 33.1276 81.3416 33.1276C77.8804 33.1276 75.3536 30.1583 76.0113 25.9255C76.617 21.9129 79.5292 19.2748 83.1589 19.2748ZM127.024 28.6748H107.618C108.444 31.973 110.753 33.6196 113.94 33.6196C116.855 33.6196 118.39 32.9051 119.439 31.3104H126.309C124.66 37.3011 119.219 39.7167 114.106 39.7167C105.915 39.7167 100.584 33.9435 100.584 26.1925C100.584 18.4985 106.08 12.6711 113.886 12.6711C121.691 12.6711 127.081 18.5059 127.081 26.2V26.2006C127.081 27.2459 127.081 27.6292 127.024 28.6748ZM107.564 23.6163H120.158C119.664 20.8126 117.023 18.8347 113.891 18.8347C110.588 18.8347 108.291 20.7582 107.564 23.6163Z" fill="#010101"/>
</g>
</g>
<path d="M9.85272 64V53.8182H13.8698C14.642 53.8182 15.2999 53.9657 15.8435 54.2607C16.387 54.5523 16.8013 54.9583 17.0864 55.4787C17.3747 55.9957 17.5189 56.5923 17.5189 57.2685C17.5189 57.9446 17.3731 58.5412 17.0814 59.0582C16.7897 59.5753 16.3672 59.978 15.8137 60.2663C15.2635 60.5547 14.5973 60.6989 13.8151 60.6989H11.2547V58.9737H13.4671C13.8814 58.9737 14.2227 58.9025 14.4912 58.7599C14.763 58.6141 14.9652 58.4136 15.0977 58.1584C15.2336 57.8999 15.3016 57.6032 15.3016 57.2685C15.3016 56.9304 15.2336 56.6354 15.0977 56.3835C14.9652 56.1283 14.763 55.9311 14.4912 55.7919C14.2194 55.6494 13.8747 55.5781 13.4571 55.5781H12.0054V64H9.85272ZM18.8774 64V56.3636H20.9307V57.696H21.0102C21.1494 57.2221 21.3831 56.8641 21.7112 56.6222C22.0393 56.3769 22.4172 56.2543 22.8447 56.2543C22.9508 56.2543 23.0651 56.2609 23.1878 56.2741C23.3104 56.2874 23.4181 56.3056 23.5109 56.3288V58.2081C23.4115 58.1783 23.2739 58.1518 23.0983 58.1286C22.9226 58.1054 22.7619 58.0938 22.616 58.0938C22.3045 58.0938 22.0261 58.1617 21.7808 58.2976C21.5389 58.4302 21.3466 58.6158 21.2041 58.8544C21.0649 59.093 20.9953 59.3681 20.9953 59.6797V64H18.8774ZM27.7306 64.1491C26.945 64.1491 26.2689 63.9901 25.7021 63.6719C25.1387 63.3504 24.7045 62.8963 24.3996 62.3097C24.0947 61.7197 23.9422 61.022 23.9422 60.2166C23.9422 59.4311 24.0947 58.7417 24.3996 58.1484C24.7045 57.5552 25.1337 57.0928 25.6872 56.7614C26.2441 56.4299 26.897 56.2642 27.646 56.2642C28.1498 56.2642 28.6188 56.3454 29.053 56.5078C29.4905 56.6669 29.8717 56.9072 30.1965 57.2287C30.5246 57.5502 30.7798 57.9545 30.9621 58.4418C31.1444 58.9257 31.2355 59.4924 31.2355 60.142V60.7237H24.7874V59.4112H29.2419C29.2419 59.1063 29.1756 58.8362 29.0431 58.6009C28.9105 58.3655 28.7265 58.1816 28.4912 58.049C28.2592 57.9131 27.9891 57.8452 27.6808 57.8452C27.3593 57.8452 27.0743 57.9197 26.8257 58.0689C26.5805 58.2147 26.3882 58.4119 26.249 58.6605C26.1098 58.9058 26.0386 59.1792 26.0352 59.4808V60.7287C26.0352 61.1065 26.1048 61.433 26.2441 61.7081C26.3866 61.9832 26.5871 62.1953 26.8456 62.3445C27.1041 62.4936 27.4107 62.5682 27.7654 62.5682C28.0007 62.5682 28.2161 62.535 28.4117 62.4688C28.6072 62.4025 28.7746 62.303 28.9138 62.1705C29.053 62.0379 29.1591 61.8755 29.232 61.6832L31.1908 61.8125C31.0914 62.2831 30.8875 62.6941 30.5793 63.0455C30.2744 63.3935 29.8799 63.6652 29.396 63.8608C28.9155 64.053 28.3603 64.1491 27.7306 64.1491ZM32.6176 64V56.3636H34.6361V57.7109H34.7256C34.8847 57.2635 35.1498 56.9105 35.521 56.652C35.8923 56.3935 36.3364 56.2642 36.8534 56.2642C37.3771 56.2642 37.8229 56.3951 38.1908 56.657C38.5587 56.9155 38.8039 57.2668 38.9266 57.7109H39.0061C39.1619 57.2734 39.4436 56.9238 39.8513 56.6619C40.2623 56.3968 40.7478 56.2642 41.308 56.2642C42.0206 56.2642 42.5989 56.4912 43.0431 56.9453C43.4905 57.3961 43.7142 58.0357 43.7142 58.8643V64H41.6013V59.282C41.6013 58.8577 41.4886 58.5395 41.2632 58.3274C41.0378 58.1153 40.7561 58.0092 40.4181 58.0092C40.0336 58.0092 39.7336 58.1319 39.5182 58.3771C39.3028 58.6191 39.195 58.9389 39.195 59.3366V64H37.1418V59.2372C37.1418 58.8627 37.0341 58.5644 36.8186 58.3423C36.6065 58.1203 36.3264 58.0092 35.9784 58.0092C35.7431 58.0092 35.531 58.0689 35.3421 58.1882C35.1565 58.3042 35.009 58.4683 34.8996 58.6804C34.7902 58.8892 34.7355 59.1345 34.7355 59.4162V64H32.6176ZM45.3872 64V56.3636H47.5051V64H45.3872ZM46.4511 55.3793C46.1362 55.3793 45.8661 55.2749 45.6407 55.0661C45.4186 54.8539 45.3076 54.6004 45.3076 54.3054C45.3076 54.0137 45.4186 53.7635 45.6407 53.5547C45.8661 53.3426 46.1362 53.2365 46.4511 53.2365C46.766 53.2365 47.0344 53.3426 47.2565 53.5547C47.4819 53.7635 47.5945 54.0137 47.5945 54.3054C47.5945 54.6004 47.4819 54.8539 47.2565 55.0661C47.0344 55.2749 46.766 55.3793 46.4511 55.3793ZM54.0986 60.7486V56.3636H56.2165V64H54.1831V62.6129H54.1036C53.9313 63.0604 53.6446 63.42 53.2435 63.6918C52.8458 63.9635 52.3602 64.0994 51.7868 64.0994C51.2764 64.0994 50.8273 63.9834 50.4395 63.7514C50.0518 63.5194 49.7485 63.1896 49.5297 62.7621C49.3143 62.3345 49.2049 61.8224 49.2016 61.2259V56.3636H51.3195V60.848C51.3228 61.2988 51.4438 61.6551 51.6824 61.9169C51.9211 62.1787 52.2409 62.3097 52.642 62.3097C52.8972 62.3097 53.1358 62.2517 53.3579 62.1357C53.5799 62.0163 53.7589 61.8407 53.8948 61.6087C54.034 61.3767 54.1019 61.09 54.0986 60.7486ZM57.9106 64V56.3636H59.9291V57.7109H60.0186C60.1776 57.2635 60.4428 56.9105 60.814 56.652C61.1852 56.3935 61.6294 56.2642 62.1464 56.2642C62.6701 56.2642 63.1159 56.3951 63.4838 56.657C63.8517 56.9155 64.0969 57.2668 64.2195 57.7109H64.2991C64.4549 57.2734 64.7366 56.9238 65.1443 56.6619C65.5552 56.3968 66.0408 56.2642 66.6009 56.2642C67.3135 56.2642 67.8919 56.4912 68.336 56.9453C68.7835 57.3961 69.0072 58.0357 69.0072 58.8643V64H66.8943V59.282C66.8943 58.8577 66.7816 58.5395 66.5562 58.3274C66.3308 58.1153 66.0491 58.0092 65.711 58.0092C65.3266 58.0092 65.0266 58.1319 64.8112 58.3771C64.5957 58.6191 64.488 58.9389 64.488 59.3366V64H62.4347V59.2372C62.4347 58.8627 62.327 58.5644 62.1116 58.3423C61.8995 58.1203 61.6194 58.0092 61.2714 58.0092C61.0361 58.0092 60.824 58.0689 60.635 58.1882C60.4494 58.3042 60.3019 58.4683 60.1926 58.6804C60.0832 58.8892 60.0285 59.1345 60.0285 59.4162V64H57.9106ZM73.9601 64V53.8182H80.8209V55.593H76.1128V58.0192H80.468V59.794H76.1128V62.2251H80.8408V64H73.9601ZM84.2625 56.3636L85.6645 59.0334L87.1013 56.3636H89.2739L87.0615 60.1818L89.3335 64H87.1709L85.6645 61.3601L84.183 64H81.9955L84.2625 60.1818L82.075 56.3636H84.2625ZM90.5317 66.8636V56.3636H92.6198V57.6463H92.7142C92.807 57.4408 92.9413 57.232 93.1169 57.0199C93.2959 56.8045 93.5279 56.6255 93.8129 56.483C94.1013 56.3371 94.4593 56.2642 94.8868 56.2642C95.4436 56.2642 95.9574 56.41 96.428 56.7017C96.8986 56.9901 97.2748 57.4259 97.5566 58.0092C97.8383 58.5893 97.9791 59.3168 97.9791 60.1918C97.9791 61.0436 97.8416 61.7628 97.5665 62.3494C97.2947 62.9328 96.9235 63.3752 96.4529 63.6768C95.9855 63.9751 95.4619 64.1243 94.8818 64.1243C94.4709 64.1243 94.1212 64.0563 93.8328 63.9205C93.5478 63.7846 93.3141 63.6139 93.1318 63.4084C92.9495 63.1996 92.8103 62.9891 92.7142 62.777H92.6496V66.8636H90.5317ZM92.6048 60.1818C92.6048 60.6359 92.6678 61.032 92.7938 61.37C92.9197 61.7081 93.102 61.9716 93.3406 62.1605C93.5793 62.3461 93.8693 62.4389 94.2107 62.4389C94.5554 62.4389 94.847 62.3445 95.0857 62.1555C95.3243 61.9633 95.5049 61.6982 95.6276 61.3601C95.7535 61.0187 95.8165 60.6259 95.8165 60.1818C95.8165 59.741 95.7552 59.3532 95.6325 59.0185C95.5099 58.6837 95.3293 58.4219 95.0906 58.233C94.852 58.044 94.5587 57.9496 94.2107 57.9496C93.866 57.9496 93.5743 58.0407 93.3357 58.223C93.1003 58.4053 92.9197 58.6638 92.7938 58.9986C92.6678 59.3333 92.6048 59.7277 92.6048 60.1818ZM102.871 64.1491C102.086 64.1491 101.41 63.9901 100.843 63.6719C100.279 63.3504 99.8451 62.8963 99.5402 62.3097C99.2353 61.7197 99.0828 61.022 99.0828 60.2166C99.0828 59.4311 99.2353 58.7417 99.5402 58.1484C99.8451 57.5552 100.274 57.0928 100.828 56.7614C101.385 56.4299 102.038 56.2642 102.787 56.2642C103.29 56.2642 103.759 56.3454 104.194 56.5078C104.631 56.6669 105.012 56.9072 105.337 57.2287C105.665 57.5502 105.92 57.9545 106.103 58.4418C106.285 58.9257 106.376 59.4924 106.376 60.142V60.7237H99.928V59.4112H104.383C104.383 59.1063 104.316 58.8362 104.184 58.6009C104.051 58.3655 103.867 58.1816 103.632 58.049C103.4 57.9131 103.13 57.8452 102.821 57.8452C102.5 57.8452 102.215 57.9197 101.966 58.0689C101.721 58.2147 101.529 58.4119 101.39 58.6605C101.25 58.9058 101.179 59.1792 101.176 59.4808V60.7287C101.176 61.1065 101.245 61.433 101.385 61.7081C101.527 61.9832 101.728 62.1953 101.986 62.3445C102.245 62.4936 102.551 62.5682 102.906 62.5682C103.141 62.5682 103.357 62.535 103.552 62.4688C103.748 62.4025 103.915 62.303 104.054 62.1705C104.194 62.0379 104.3 61.8755 104.373 61.6832L106.331 61.8125C106.232 62.2831 106.028 62.6941 105.72 63.0455C105.415 63.3935 105.021 63.6652 104.537 63.8608C104.056 64.053 103.501 64.1491 102.871 64.1491ZM107.758 64V56.3636H109.812V57.696H109.891C110.03 57.2221 110.264 56.8641 110.592 56.6222C110.92 56.3769 111.298 56.2543 111.726 56.2543C111.832 56.2543 111.946 56.2609 112.069 56.2741C112.191 56.2874 112.299 56.3056 112.392 56.3288V58.2081C112.292 58.1783 112.155 58.1518 111.979 58.1286C111.803 58.1054 111.643 58.0938 111.497 58.0938C111.185 58.0938 110.907 58.1617 110.662 58.2976C110.42 58.4302 110.227 58.6158 110.085 58.8544C109.946 59.093 109.876 59.3681 109.876 59.6797V64H107.758ZM117.931 56.3636V57.9545H113.333V56.3636H117.931ZM114.377 54.5341H116.495V61.6534C116.495 61.849 116.524 62.0014 116.584 62.1108C116.644 62.2169 116.727 62.2914 116.833 62.3345C116.942 62.3776 117.068 62.3991 117.21 62.3991C117.31 62.3991 117.409 62.3909 117.509 62.3743C117.608 62.3544 117.684 62.3395 117.737 62.3295L118.071 63.9055C117.965 63.9387 117.815 63.9768 117.623 64.0199C117.431 64.0663 117.197 64.0945 116.922 64.1044C116.412 64.1243 115.964 64.0563 115.58 63.9006C115.199 63.7448 114.902 63.5028 114.69 63.1747C114.478 62.8466 114.373 62.4323 114.377 61.9318V54.5341Z" fill="#BD9600"/>
<defs>
<clipPath id="clip0_3172_846">
<rect width="127.434" height="40" fill="white"/>
</clipPath>
</defs>
</svg>
