<svg width="390" height="100" viewBox="0 0 390 100" fill="none" xmlns="http://www.w3.org/2000/svg">
<path d="M29.2437 47.8992V53.376H0V4.85059H5.77796V47.8992H29.2437Z" fill="#FAF9F6"/>
<path d="M81.7393 29.1132C81.7393 43.3951 70.8065 54.1381 56.604 54.1381C42.4707 54.1381 31.4688 43.3913 31.4688 29.1132C31.4688 14.8314 42.4707 4.08838 56.6733 4.08838C70.8065 4.08838 81.7393 14.8352 81.7393 29.1132ZM37.3159 29.1132C37.3159 40.2737 45.7405 48.6613 56.604 48.6613C67.4675 48.6613 75.8921 40.3426 75.8921 29.1132C75.8921 17.8838 67.4675 9.5652 56.604 9.5652C45.7405 9.5652 37.3159 17.9528 37.3159 29.1132Z" fill="#FAF9F6"/>
<path d="M153.665 4.85254L140.09 53.3779H132.781L127.837 35.8406L121.848 11.7847H120.805L114.816 35.8406L109.942 53.3779H102.56L88.9844 4.85254H94.9739L101.448 28.0773L106.322 47.4875L111.127 28.0773L117.601 4.85254H125.049L131.523 28.0773L136.397 47.5564L141.271 28.0773L147.676 4.85254H153.665Z" fill="#FAF9F6"/>
<path d="M173.928 53.378H161.953L176.086 0H188.062L173.928 53.378Z" fill="#FAF9F6"/>
<path d="M197.105 29.1139C197.105 14.832 207.757 3.95117 222.379 3.95117C234.354 3.95117 243.475 11.4387 246.122 21.9749H233.45C231.5 17.7466 227.534 15.1806 222.379 15.1806C214.301 15.1806 209.081 21.0021 209.081 29.1139C209.081 37.2257 214.305 43.0473 222.379 43.0473C227.53 43.0473 231.5 40.4812 233.45 36.2529H246.122C243.475 46.7891 234.354 54.2767 222.379 54.2767C207.761 54.2805 197.105 43.3958 197.105 29.1139Z" fill="#FAF9F6"/>
<path d="M300.783 29.1139C300.783 43.3958 289.712 54.2767 275.298 54.2767C260.884 54.2767 249.812 43.392 249.812 29.1139C249.812 14.832 260.884 3.95117 275.298 3.95117C289.712 3.95117 300.783 14.8359 300.783 29.1139ZM261.792 29.1139C261.792 37.2257 267.5 43.0473 275.298 43.0473C283.095 43.0473 288.804 37.2257 288.804 29.1139C288.804 21.0021 283.095 15.1806 275.298 15.1806C267.504 15.1806 261.792 21.0059 261.792 29.1139Z" fill="#FAF9F6"/>
<path d="M350.014 29.1143C350.014 42.9097 339.293 53.377 325.087 53.377H306.914V4.85156H325.087C339.293 4.85156 350.014 15.3188 350.014 29.1143ZM338.177 29.1143C338.177 21.351 332.815 16.081 325.087 16.081H318.751V42.1476H325.087C332.815 42.1476 338.177 36.8086 338.177 29.1143Z" fill="#FAF9F6"/>
<path d="M367.977 16.0848V23.2927H387.75V34.5222H367.977V42.1476H389.7V53.377H356.141V4.85156H389.7V16.081H367.977V16.0848Z" fill="#FAF9F6"/>
<path d="M289.358 93.0027C288.291 93.0027 287.322 92.8017 286.453 92.3998C285.583 91.9905 284.892 91.4022 284.381 90.6348C283.869 89.8602 283.613 88.9247 283.613 87.8285C283.613 86.8638 283.803 86.0819 284.183 85.4826C284.563 84.876 285.071 84.401 285.707 84.0575C286.343 83.714 287.044 83.4582 287.812 83.2901C288.586 83.1147 289.365 82.9759 290.147 82.8736C291.17 82.742 291.999 82.6434 292.635 82.5776C293.278 82.5045 293.746 82.3839 294.038 82.2158C294.338 82.0477 294.488 81.7554 294.488 81.3389V81.2512C294.488 80.1695 294.192 79.3291 293.6 78.7298C293.015 78.1306 292.127 77.8309 290.936 77.8309C289.701 77.8309 288.733 78.1013 288.031 78.6421C287.329 79.1829 286.836 79.7603 286.551 80.3742L284.096 79.4972C284.534 78.474 285.119 77.6775 285.85 77.1074C286.588 76.5301 287.392 76.1281 288.261 75.9016C289.138 75.6677 290.001 75.5508 290.848 75.5508C291.389 75.5508 292.01 75.6166 292.712 75.7481C293.421 75.8723 294.104 76.1318 294.762 76.5264C295.427 76.9211 295.979 77.5167 296.417 78.3133C296.856 79.1099 297.075 80.1769 297.075 81.5142V92.608H294.488V90.3279H294.356C294.181 90.6933 293.889 91.0843 293.479 91.5009C293.07 91.9174 292.526 92.2719 291.846 92.5642C291.166 92.8565 290.337 93.0027 289.358 93.0027ZM289.752 90.6787C290.775 90.6787 291.638 90.4777 292.339 90.0758C293.048 89.6738 293.582 89.1549 293.94 88.5191C294.305 87.8833 294.488 87.2146 294.488 86.513V84.1452C294.378 84.2767 294.137 84.3973 293.764 84.5069C293.399 84.6093 292.975 84.7006 292.493 84.781C292.018 84.8541 291.554 84.9199 291.101 84.9783C290.655 85.0295 290.293 85.0733 290.015 85.1099C289.343 85.1976 288.714 85.3401 288.13 85.5374C287.552 85.7274 287.085 86.0161 286.727 86.4034C286.376 86.7834 286.2 87.3023 286.2 87.9601C286.2 88.859 286.533 89.5386 287.198 89.999C287.87 90.4521 288.722 90.6787 289.752 90.6787Z" fill="#FAF9F6"/>
<path d="M308.594 99.2731C307.344 99.2731 306.27 99.1123 305.371 98.7908C304.472 98.4765 303.723 98.0599 303.123 97.5411C302.531 97.0295 302.06 96.4814 301.709 95.8967L303.77 94.4497C304.004 94.7566 304.3 95.1074 304.658 95.5021C305.016 95.904 305.506 96.2512 306.127 96.5435C306.756 96.8431 307.578 96.9929 308.594 96.9929C309.953 96.9929 311.075 96.6641 311.959 96.0063C312.843 95.3486 313.285 94.3182 313.285 92.915V89.4948H313.066C312.876 89.8017 312.606 90.1817 312.255 90.6348C311.911 91.0806 311.414 91.4789 310.764 91.8297C310.121 92.1732 309.251 92.345 308.155 92.345C306.796 92.345 305.575 92.0234 304.494 91.3803C303.419 90.7372 302.568 89.8017 301.939 88.5739C301.318 87.3462 301.008 85.8553 301.008 84.1013C301.008 82.3766 301.311 80.8748 301.918 79.5959C302.524 78.3096 303.368 77.3157 304.45 76.6141C305.531 75.9052 306.781 75.5508 308.199 75.5508C309.295 75.5508 310.165 75.7335 310.808 76.0989C311.458 76.457 311.955 76.8663 312.299 77.3267C312.65 77.7798 312.92 78.1525 313.11 78.4448H313.373V75.77H315.872V93.0904C315.872 94.5374 315.544 95.714 314.886 96.6202C314.235 97.5338 313.358 98.2025 312.255 98.6263C311.159 99.0575 309.938 99.2731 308.594 99.2731ZM308.506 90.021C309.544 90.021 310.421 89.7834 311.137 89.3084C311.853 88.8334 312.397 88.1501 312.77 87.2585C313.143 86.3669 313.329 85.2999 313.329 84.0575C313.329 82.8443 313.147 81.7737 312.781 80.8455C312.416 79.9174 311.875 79.1902 311.159 78.6641C310.442 78.1379 309.558 77.8748 308.506 77.8748C307.41 77.8748 306.496 78.1525 305.765 78.7079C305.042 79.2633 304.497 80.0088 304.132 80.9442C303.774 81.8797 303.595 82.9174 303.595 84.0575C303.595 85.2268 303.777 86.2609 304.143 87.1598C304.516 88.0514 305.064 88.753 305.787 89.2646C306.518 89.7688 307.424 90.021 308.506 90.021Z" fill="#FAF9F6"/>
<path d="M327.668 92.9588C326.045 92.9588 324.646 92.6007 323.469 91.8845C322.3 91.161 321.397 90.1525 320.762 88.859C320.133 87.5581 319.819 86.0453 319.819 84.3206C319.819 82.5959 320.133 81.0758 320.762 79.7603C321.397 78.4375 322.282 77.4071 323.414 76.6689C324.555 75.9235 325.885 75.5508 327.405 75.5508C328.282 75.5508 329.148 75.6969 330.003 75.9893C330.858 76.2816 331.636 76.7566 332.338 77.4144C333.039 78.0648 333.598 78.9272 334.015 80.0015C334.432 81.0758 334.64 82.3985 334.64 83.9698V85.066H321.661V82.8297H332.009C332.009 81.8797 331.819 81.0319 331.439 80.2865C331.066 79.541 330.533 78.9527 329.838 78.5216C329.151 78.0904 328.34 77.8748 327.405 77.8748C326.374 77.8748 325.483 78.1306 324.73 78.6421C323.985 79.1464 323.411 79.8041 323.009 80.6153C322.607 81.4265 322.406 82.2962 322.406 83.2244V84.7152C322.406 85.9868 322.625 87.0648 323.064 87.9491C323.509 88.8261 324.127 89.4948 324.916 89.9552C325.706 90.4083 326.623 90.6348 327.668 90.6348C328.347 90.6348 328.961 90.5398 329.509 90.3498C330.065 90.1525 330.544 89.8602 330.946 89.4728C331.347 89.0782 331.658 88.5886 331.877 88.0039L334.377 88.7055C334.114 89.5532 333.671 90.2987 333.05 90.9418C332.429 91.5776 331.662 92.0746 330.748 92.4327C329.835 92.7834 328.808 92.9588 327.668 92.9588Z" fill="#FAF9F6"/>
<path d="M341.162 82.4789V92.608H338.575V75.77H341.075V78.401H341.294C341.689 77.5459 342.288 76.8589 343.092 76.3401C343.896 75.8139 344.933 75.5508 346.205 75.5508C347.345 75.5508 348.343 75.7846 349.198 76.2524C350.053 76.7128 350.718 77.4144 351.193 78.3571C351.668 79.2926 351.905 80.4765 351.905 81.9089V92.608H349.318V82.0843C349.318 80.7615 348.975 79.7311 348.288 78.9929C347.601 78.2475 346.658 77.8748 345.46 77.8748C344.634 77.8748 343.896 78.0538 343.245 78.4119C342.602 78.77 342.094 79.2926 341.721 79.9795C341.349 80.6665 341.162 81.4996 341.162 82.4789Z" fill="#FAF9F6"/>
<path d="M363.473 92.9588C361.895 92.9588 360.535 92.5861 359.395 91.8407C358.255 91.0953 357.378 90.0685 356.764 88.7603C356.151 87.4521 355.844 85.9576 355.844 84.2767C355.844 82.5666 356.158 81.0575 356.786 79.7493C357.422 78.4339 358.306 77.4071 359.439 76.6689C360.579 75.9235 361.909 75.5508 363.429 75.5508C364.613 75.5508 365.68 75.77 366.63 76.2085C367.58 76.647 368.359 77.2609 368.965 78.0502C369.572 78.8395 369.948 79.7603 370.094 80.8127H367.507C367.31 80.0453 366.872 79.3656 366.192 78.7737C365.52 78.1744 364.613 77.8748 363.473 77.8748C362.465 77.8748 361.58 78.1379 360.82 78.6641C360.068 79.1829 359.479 79.9174 359.056 80.8675C358.639 81.8102 358.431 82.9174 358.431 84.189C358.431 85.4899 358.635 86.6227 359.045 87.5873C359.461 88.552 360.046 89.3011 360.799 89.8346C361.559 90.3681 362.45 90.6348 363.473 90.6348C364.146 90.6348 364.756 90.5179 365.304 90.284C365.852 90.0502 366.316 89.714 366.696 89.2755C367.076 88.837 367.347 88.3108 367.507 87.697H370.094C369.948 88.6909 369.587 89.5861 369.009 90.3827C368.439 91.172 367.683 91.8005 366.74 92.2682C365.805 92.7286 364.716 92.9588 363.473 92.9588Z" fill="#FAF9F6"/>
<path d="M375.543 98.9223C375.104 98.9223 374.713 98.8858 374.37 98.8127C374.026 98.7469 373.789 98.6811 373.657 98.6154L374.315 96.3352C374.943 96.496 375.499 96.5545 375.981 96.5106C376.464 96.4668 376.891 96.2512 377.264 95.8638C377.644 95.4838 377.991 94.8663 378.305 94.0112L378.788 92.6957L372.561 75.77H375.367L380.015 89.1878H380.191L384.839 75.77H387.645L380.498 95.0636C380.176 95.9333 379.778 96.6531 379.303 97.2232C378.828 97.8005 378.276 98.228 377.647 98.5057C377.026 98.7835 376.325 98.9223 375.543 98.9223Z" fill="#FAF9F6"/>
</svg>
