<svg width="1062" height="267" viewBox="0 0 1062 267" fill="none" xmlns="http://www.w3.org/2000/svg">
<path d="M79.6941 130.518V145.443H0V13.2031H15.7459V130.518H79.6941Z" fill="#050406"/>
<path d="M222.757 79.3338C222.757 118.254 192.963 147.531 154.259 147.531C115.743 147.531 85.7607 118.244 85.7607 79.3338C85.7607 40.4133 115.743 11.1367 154.447 11.1367C192.963 11.1367 222.757 40.4237 222.757 79.3338ZM101.695 79.3338C101.695 109.748 124.654 132.606 154.259 132.606C183.864 132.606 206.822 109.936 206.822 79.3338C206.822 48.7318 183.864 26.062 154.259 26.062C124.654 26.062 101.695 48.9196 101.695 79.3338Z" fill="#050406"/>
<path d="M418.765 13.2227L381.77 145.463H361.851L348.38 97.6706L332.058 32.1141H329.217L312.894 97.6706L299.612 145.463H279.495L242.499 13.2227H258.822L276.465 76.5142L289.747 129.41L302.841 76.5142L320.484 13.2227H340.78L358.423 76.5142L371.706 129.598L384.988 76.5142L402.443 13.2227H418.765Z" fill="#050406"/>
<path d="M473.986 145.464H441.352L479.867 0H512.502L473.986 145.464Z" fill="#705CF6"/>
<path d="M537.152 79.3346C537.152 40.414 566.181 10.7617 606.028 10.7617C638.662 10.7617 663.518 31.1666 670.731 59.8795H636.199C630.884 48.3568 620.075 41.3638 606.028 41.3638C584.013 41.3638 569.787 57.2284 569.787 79.3346C569.787 101.441 584.023 117.305 606.028 117.305C620.065 117.305 630.884 110.312 636.199 98.7896H670.731C663.518 127.503 638.662 147.907 606.028 147.907C566.191 147.918 537.152 118.255 537.152 79.3346Z" fill="#705CF6"/>
<path d="M819.691 79.3346C819.691 118.255 789.52 147.907 750.239 147.907C710.958 147.907 680.787 118.245 680.787 79.3346C680.787 40.414 710.958 10.7617 750.239 10.7617C789.52 10.7617 819.691 40.4244 819.691 79.3346ZM713.432 79.3346C713.432 101.441 728.989 117.305 750.239 117.305C771.489 117.305 787.046 101.441 787.046 79.3346C787.046 57.2284 771.489 41.3638 750.239 41.3638C729 41.3638 713.432 57.2389 713.432 79.3346Z" fill="#705CF6"/>
<path d="M953.846 79.3388C953.846 116.934 924.629 145.459 885.914 145.459H836.391V13.2188H885.914C924.629 13.2188 953.846 41.7438 953.846 79.3388ZM921.588 79.3388C921.588 58.1825 906.975 43.8208 885.914 43.8208H868.648V114.857H885.914C906.975 114.857 921.588 100.307 921.588 79.3388Z" fill="#705CF6"/>
<path d="M1002.8 43.8313V63.4742H1056.69V94.0763H1002.8V114.857H1062V145.459H970.545V13.2188H1062V43.8208H1002.8V43.8313Z" fill="#705CF6"/>
<path d="M813.505 248.974C810.862 248.974 808.463 248.476 806.308 247.48C804.153 246.466 802.443 245.009 801.175 243.108C799.908 241.188 799.274 238.871 799.274 236.155C799.274 233.765 799.745 231.828 800.686 230.343C801.628 228.84 802.886 227.664 804.461 226.813C806.036 225.962 807.775 225.328 809.676 224.912C811.595 224.477 813.523 224.133 815.46 223.88C817.995 223.554 820.05 223.309 821.625 223.146C823.219 222.965 824.377 222.667 825.102 222.25C825.844 221.834 826.215 221.109 826.215 220.077V219.86C826.215 217.181 825.482 215.098 824.015 213.614C822.567 212.129 820.367 211.387 817.416 211.387C814.356 211.387 811.957 212.057 810.219 213.397C808.481 214.736 807.259 216.167 806.552 217.688L800.469 215.515C801.555 212.98 803.004 211.007 804.814 209.594C806.643 208.164 808.635 207.168 810.789 206.607C812.962 206.028 815.098 205.738 817.198 205.738C818.538 205.738 820.077 205.901 821.815 206.227C823.572 206.535 825.264 207.177 826.894 208.155C828.542 209.133 829.909 210.608 830.995 212.582C832.081 214.555 832.624 217.199 832.624 220.512V247.996H826.215V242.347H825.889C825.455 243.252 824.73 244.221 823.716 245.253C822.703 246.285 821.354 247.163 819.67 247.887C817.986 248.612 815.931 248.974 813.505 248.974ZM814.483 243.216C817.017 243.216 819.154 242.718 820.892 241.723C822.648 240.727 823.97 239.441 824.857 237.866C825.762 236.291 826.215 234.634 826.215 232.896V227.03C825.943 227.356 825.346 227.655 824.423 227.926C823.517 228.18 822.467 228.406 821.272 228.605C820.095 228.786 818.946 228.949 817.823 229.094C816.719 229.221 815.822 229.329 815.134 229.42C813.469 229.637 811.912 229.99 810.463 230.479C809.033 230.95 807.874 231.665 806.987 232.625C806.118 233.566 805.683 234.852 805.683 236.481C805.683 238.708 806.507 240.392 808.155 241.532C809.821 242.655 811.93 243.216 814.483 243.216ZM861.161 264.508C858.065 264.508 855.403 264.11 853.176 263.313C850.949 262.535 849.094 261.503 847.609 260.217C846.142 258.95 844.975 257.592 844.105 256.144L849.211 252.559C849.791 253.319 850.524 254.188 851.411 255.166C852.298 256.162 853.511 257.022 855.05 257.746C856.607 258.488 858.644 258.859 861.161 258.859C864.528 258.859 867.308 258.045 869.498 256.415C871.689 254.786 872.785 252.233 872.785 248.757V240.283H872.241C871.771 241.044 871.101 241.985 870.232 243.108C869.381 244.212 868.15 245.199 866.538 246.068C864.945 246.919 862.79 247.344 860.075 247.344C856.707 247.344 853.683 246.548 851.004 244.954C848.342 243.361 846.233 241.044 844.676 238.002C843.137 234.96 842.367 231.267 842.367 226.921C842.367 222.648 843.119 218.928 844.622 215.759C846.124 212.573 848.215 210.11 850.895 208.372C853.575 206.616 856.671 205.738 860.183 205.738C862.899 205.738 865.054 206.191 866.647 207.096C868.258 207.983 869.489 208.997 870.34 210.138C871.209 211.26 871.879 212.183 872.35 212.908H873.002V206.281H879.194V249.191C879.194 252.776 878.379 255.691 876.75 257.936C875.138 260.199 872.966 261.856 870.232 262.906C867.516 263.974 864.492 264.508 861.161 264.508ZM860.944 241.587C863.515 241.587 865.687 240.998 867.462 239.821C869.236 238.645 870.585 236.952 871.508 234.743C872.432 232.534 872.893 229.891 872.893 226.813C872.893 223.807 872.441 221.155 871.535 218.855C870.63 216.556 869.29 214.754 867.516 213.451C865.742 212.147 863.551 211.495 860.944 211.495C858.228 211.495 855.965 212.183 854.154 213.559C852.362 214.935 851.013 216.782 850.107 219.1C849.22 221.417 848.777 223.988 848.777 226.813C848.777 229.71 849.229 232.271 850.135 234.498C851.058 236.707 852.416 238.445 854.208 239.713C856.019 240.962 858.264 241.587 860.944 241.587ZM908.416 248.865C904.397 248.865 900.93 247.978 898.015 246.204C895.118 244.411 892.882 241.913 891.306 238.708C889.749 235.485 888.971 231.737 888.971 227.464C888.971 223.192 889.749 219.426 891.306 216.167C892.882 212.89 895.072 210.337 897.879 208.508C900.703 206.661 903.998 205.738 907.764 205.738C909.937 205.738 912.083 206.1 914.201 206.824C916.319 207.548 918.247 208.725 919.986 210.355C921.724 211.966 923.109 214.103 924.141 216.764C925.173 219.426 925.689 222.703 925.689 226.595V229.311H893.533V223.771H919.171C919.171 221.417 918.7 219.317 917.759 217.47C916.835 215.623 915.514 214.166 913.793 213.098C912.092 212.03 910.082 211.495 907.764 211.495C905.211 211.495 903.003 212.129 901.138 213.397C899.291 214.646 897.87 216.275 896.874 218.285C895.878 220.295 895.38 222.449 895.38 224.749V228.442C895.38 231.593 895.923 234.263 897.01 236.454C898.114 238.627 899.644 240.283 901.599 241.424C903.555 242.546 905.827 243.108 908.416 243.108C910.1 243.108 911.621 242.872 912.979 242.402C914.355 241.913 915.541 241.188 916.536 240.229C917.532 239.251 918.302 238.038 918.845 236.59L925.037 238.328C924.385 240.428 923.29 242.275 921.751 243.868C920.212 245.443 918.311 246.674 916.048 247.562C913.784 248.431 911.241 248.865 908.416 248.865ZM941.848 222.902V247.996H935.439V206.281H941.631V212.799H942.174C943.152 210.681 944.636 208.979 946.628 207.693C948.619 206.39 951.19 205.738 954.341 205.738C957.165 205.738 959.637 206.317 961.755 207.476C963.873 208.617 965.521 210.355 966.698 212.69C967.875 215.008 968.463 217.941 968.463 221.49V247.996H962.054V221.924C962.054 218.647 961.203 216.094 959.501 214.266C957.799 212.419 955.463 211.495 952.494 211.495C950.448 211.495 948.619 211.939 947.008 212.826C945.415 213.713 944.156 215.008 943.233 216.71C942.31 218.412 941.848 220.476 941.848 222.902ZM997.122 248.865C993.211 248.865 989.843 247.942 987.019 246.095C984.194 244.248 982.022 241.704 980.501 238.464C978.98 235.223 978.22 231.52 978.22 227.356C978.22 223.119 978.998 219.38 980.555 216.14C982.13 212.881 984.321 210.337 987.127 208.508C989.952 206.661 993.247 205.738 997.013 205.738C999.946 205.738 1002.59 206.281 1004.94 207.367C1007.3 208.454 1009.23 209.975 1010.73 211.93C1012.23 213.885 1013.16 216.167 1013.53 218.774H1007.12C1006.63 216.873 1005.54 215.189 1003.86 213.722C1002.19 212.238 999.946 211.495 997.122 211.495C994.623 211.495 992.432 212.147 990.549 213.451C988.685 214.736 987.227 216.556 986.177 218.91C985.145 221.245 984.629 223.988 984.629 227.139C984.629 230.361 985.136 233.168 986.15 235.558C987.182 237.948 988.63 239.803 990.495 241.125C992.378 242.447 994.587 243.108 997.122 243.108C998.787 243.108 1000.3 242.818 1001.66 242.239C1003.02 241.659 1004.16 240.826 1005.11 239.74C1006.05 238.654 1006.72 237.35 1007.12 235.829H1013.53C1013.16 238.292 1012.27 240.509 1010.84 242.483C1009.42 244.438 1007.55 245.995 1005.21 247.154C1002.9 248.295 1000.2 248.865 997.122 248.865ZM1027.02 263.639C1025.94 263.639 1024.97 263.549 1024.12 263.368C1023.27 263.205 1022.68 263.042 1022.35 262.879L1023.98 257.23C1025.54 257.628 1026.91 257.773 1028.11 257.664C1029.3 257.556 1030.36 257.022 1031.29 256.062C1032.23 255.121 1033.09 253.591 1033.87 251.472L1035.06 248.213L1019.64 206.281H1026.59L1038.1 239.523H1038.54L1050.05 206.281H1057.01L1039.3 254.08C1038.5 256.234 1037.52 258.017 1036.34 259.43C1035.16 260.86 1033.79 261.919 1032.24 262.607C1030.7 263.295 1028.96 263.639 1027.02 263.639Z" fill="#705CF6"/>
</svg>
